<?xml version="1.0" encoding="UTF-8"?>
<svg version="1.1" xmlns="http://www.w3.org/2000/svg" width="693" height="562">
<path d="M0 0 C228.69 0 457.38 0 693 0 C693 185.46 693 370.92 693 562 C464.31 562 235.62 562 0 562 C0 376.54 0 191.08 0 0 Z " fill="#FEFEFE" transform="translate(0,0)"/>
<path d="M0 0 C1.59122681 -0.03287109 1.59122681 -0.03287109 3.21459961 -0.06640625 C11.58376223 -0.04543255 17.72413904 1.61026656 24.25 6.9375 C27.55981454 11.49281966 27.01917718 17.12438876 26.1875 22.4375 C20.58151071 39.09453038 1.83231857 50.41563669 -12.8125 58.4375 C-13.4725 58.4375 -14.1325 58.4375 -14.8125 58.4375 C-13.93777407 63.39264502 -13.93777407 63.39264502 -10.6875 66.875 C-9.759375 67.1534375 -9.759375 67.1534375 -8.8125 67.4375 C-11.8125 69.4375 -11.8125 69.4375 -13.8125 69.4375 C-14.1425 71.4175 -14.4725 73.3975 -14.8125 75.4375 C11.82482594 59.141172 11.82482594 59.141172 28.1875 33.4375 C28.66974312 30.44277022 28.98850192 27.46364316 29.1875 24.4375 C33.58950598 28.23233274 35.72363411 32.24085895 36.546875 37.9140625 C37.08701694 48.32679881 32.85087588 57.27882363 26.2578125 65.15625 C4.51520027 89.11414725 -25.83177515 105.00860623 -55.8125 116.4375 C-57.8251013 109.95585932 -54.76755157 101.42713224 -51.8125 95.4375 C-49.32526309 92.80930724 -47.1697084 91.74641161 -43.8125 90.4375 C-41.89294878 89.50450385 -39.99408545 88.53476038 -38.09301758 87.56469727 C-36.0117287 86.50596627 -33.91966075 85.47179431 -31.82421875 84.44140625 C-26.73877973 81.92231458 -21.76502836 79.20755823 -16.8125 76.4375 C-16.8125 74.1275 -16.8125 71.8175 -16.8125 69.4375 C-18.4625 69.1075 -20.1125 68.7775 -21.8125 68.4375 C-20.8125 66.4375 -20.8125 66.4375 -17.8125 65.4375 C-17.4825 63.7875 -17.1525 62.1375 -16.8125 60.4375 C-17.71174194 60.87618408 -17.71174194 60.87618408 -18.62915039 61.32373047 C-21.37496944 62.65916209 -24.12491347 63.98588019 -26.875 65.3125 C-27.81794922 65.77269531 -28.76089844 66.23289062 -29.73242188 66.70703125 C-34.70717679 69.09907368 -39.44190771 71.14140699 -44.8125 72.4375 C-44.36395844 70.33280497 -43.90689263 68.22966192 -43.41357422 66.13500977 C-43.01439287 64.3435578 -42.67666614 62.53725667 -42.40283203 60.72241211 C-41.62421281 56.59353695 -41.01239436 53.46076946 -37.73266602 50.66381836 C-35.04214179 49.18723211 -32.33926708 47.97719436 -29.5 46.8125 C-27.49600284 45.90174032 -25.49468892 44.98505361 -23.49609375 44.0625 C-22.52140137 43.62164062 -21.54670898 43.18078125 -20.54248047 42.7265625 C-9.46984975 37.4982053 3.4721278 29.56743534 9.1875 18.4375 C9.85426878 14.89499949 9.85426878 14.89499949 9.1875 11.4375 C5.37603131 7.28972525 0.74160363 5.71113899 -4.78857422 5.11865234 C-5.8045166 5.08723145 -6.82045898 5.05581055 -7.8671875 5.0234375 C-8.97578125 4.98476562 -10.084375 4.94609375 -11.2265625 4.90625 C-12.93972656 4.85984375 -12.93972656 4.85984375 -14.6875 4.8125 C-15.8528125 4.77382812 -17.018125 4.73515625 -18.21875 4.6953125 C-21.08317864 4.60139681 -23.94760692 4.51572017 -26.8125 4.4375 C-26.8125 4.1075 -26.8125 3.7775 -26.8125 3.4375 C-17.87637921 0.75186799 -9.28286452 0.08722063 0 0 Z " fill="#2F71B7" transform="translate(395.8125,189.5625)"/>
<path d="M0 0 C1.43352212 0.00015908 2.86704998 0.00585132 4.30053711 0.01586914 C5.43041298 0.01799156 5.43041298 0.01799156 6.58311462 0.02015686 C8.99807646 0.02577163 11.41294687 0.03832656 13.82788086 0.05102539 C15.46134307 0.05603849 17.09480672 0.06060173 18.72827148 0.06469727 C22.74067671 0.07574585 26.75301326 0.09302033 30.76538086 0.11352539 C31.26038086 1.59852539 31.26038086 1.59852539 31.76538086 3.11352539 C33.85938559 4.36779199 33.85938559 4.36779199 36.45678711 5.37524414 C37.40102539 5.77163086 38.34526367 6.16801758 39.31811523 6.57641602 C40.31133789 6.98053711 41.30456055 7.3846582 42.32788086 7.80102539 C43.3249707 8.21674805 44.32206055 8.6324707 45.34936523 9.06079102 C47.81749411 10.08819394 50.2893961 11.10523585 52.76538086 12.11352539 C53.05413086 11.04102539 53.34288086 9.96852539 53.64038086 8.86352539 C54.76538086 5.11352539 54.76538086 5.11352539 56.76538086 1.11352539 C60.06538086 1.11352539 63.36538086 1.11352539 66.76538086 1.11352539 C66.12605529 9.38671377 65.30876907 17.62406441 64.32788086 25.86352539 C64.20606445 26.93473633 64.08424805 28.00594727 63.95874023 29.10961914 C63.26819569 34.92736745 62.3401493 40.46890087 60.76538086 46.11352539 C62.41538086 46.11352539 64.06538086 46.11352539 65.76538086 46.11352539 C65.80810186 47.77964444 65.80601918 49.44735424 65.76538086 51.11352539 C65.43538086 51.44352539 65.10538086 51.77352539 64.76538086 52.11352539 C63.11538086 52.11352539 61.46538086 52.11352539 59.76538086 52.11352539 C59.43538086 55.74352539 59.10538086 59.37352539 58.76538086 63.11352539 C54.80538086 63.11352539 50.84538086 63.11352539 46.76538086 63.11352539 C47.42538086 59.48352539 48.08538086 55.85352539 48.76538086 52.11352539 C40.51538086 52.11352539 32.26538086 52.11352539 23.76538086 52.11352539 C23.43538086 55.41352539 23.10538086 58.71352539 22.76538086 62.11352539 C19.89038086 62.30102539 19.89038086 62.30102539 16.76538086 62.11352539 C14.19921454 58.26427591 14.2144041 55.67859499 13.76538086 51.11352539 C13.64420898 51.81219727 13.52303711 52.51086914 13.39819336 53.23071289 C13.23061523 54.14079102 13.06303711 55.05086914 12.89038086 55.98852539 C12.72795898 56.89344727 12.56553711 57.79836914 12.39819336 58.73071289 C11.76538086 61.11352539 11.76538086 61.11352539 9.76538086 63.11352539 C7.16381836 63.30883789 7.16381836 63.30883789 4.14038086 63.23852539 C3.13749023 63.22047852 2.13459961 63.20243164 1.10131836 63.18383789 C-0.0549707 63.1490332 -0.0549707 63.1490332 -1.23461914 63.11352539 C-1.53651558 55.42977398 -0.39053244 48.01938347 0.70288086 40.42602539 C0.8852832 39.12084961 1.06768555 37.81567383 1.25561523 36.47094727 C1.98297156 31.31597464 2.74402324 26.22031347 3.76538086 21.11352539 C-0.19461914 21.11352539 -4.15461914 21.11352539 -8.23461914 21.11352539 C-7.23461914 16.11352539 -7.23461914 16.11352539 -6.23461914 15.11352539 C-4.38174413 15.04126037 -2.52628036 15.02971319 -0.67211914 15.05102539 C0.33979492 15.06004883 1.35170898 15.06907227 2.39428711 15.07836914 C3.56797852 15.09577148 3.56797852 15.09577148 4.76538086 15.11352539 C5.09538086 12.14352539 5.42538086 9.17352539 5.76538086 6.11352539 C1.80538086 6.11352539 -2.15461914 6.11352539 -6.23461914 6.11352539 C-3.84316235 0.13488342 -3.84316235 0.13488342 0 0 Z " fill="#EBEBEB" transform="translate(367.234619140625,319.886474609375)"/>
<path d="M0 0 C3.3 0 6.6 0 10 0 C10 0.99 10 1.98 10 3 C12.31 3 14.62 3 17 3 C17 4.32 17 5.64 17 7 C17.66 7 18.32 7 19 7 C19.309375 6.195625 19.61875 5.39125 19.9375 4.5625 C21 2 21 2 22 1 C26.13962283 0.74698761 30.29105996 0.81477451 34.4375 0.8125 C35.60861328 0.80025391 36.77972656 0.78800781 37.98632812 0.77539062 C39.10330078 0.77345703 40.22027344 0.77152344 41.37109375 0.76953125 C42.40161865 0.76542236 43.43214355 0.76131348 44.49389648 0.75708008 C47 1 47 1 49 3 C49.1953125 5.8203125 49.1953125 5.8203125 49.125 9.125 C49.10695313 10.22070312 49.08890625 11.31640625 49.0703125 12.4453125 C49.04710937 13.28835938 49.02390625 14.13140625 49 15 C47.35425434 15.02688151 45.70838587 15.04634123 44.0625 15.0625 C43.14597656 15.07410156 42.22945313 15.08570313 41.28515625 15.09765625 C39 15 39 15 38 14 C37.85884839 11.32941149 37.95752893 8.67567762 38 6 C35.36 6.33 32.72 6.66 30 7 C29.01 9.64 28.02 12.28 27 15 C31.65537356 15.92092281 36.14685433 16.12205997 40.875 16.0625 C41.56335938 16.05798828 42.25171875 16.05347656 42.9609375 16.04882812 C44.64066335 16.03716336 46.32034375 16.01923271 48 16 C47.67222187 25.78417729 46.53066144 35.4323692 45.1875 45.125 C45.03442383 46.3106958 44.88134766 47.4963916 44.72363281 48.71801758 C44.56088867 49.8448999 44.39814453 50.97178223 44.23046875 52.1328125 C44.09020264 53.14230957 43.94993652 54.15180664 43.80541992 55.19189453 C42.83578805 58.57252678 41.43727376 60.48614485 39 63 C36.203125 63.48828125 36.203125 63.48828125 33.25 63.3125 C32.26515625 63.26738281 31.2803125 63.22226562 30.265625 63.17578125 C29.14414062 63.08876953 29.14414062 63.08876953 28 63 C27.67 62.01 27.34 61.02 27 60 C26.46890625 60.49113281 25.9378125 60.98226562 25.390625 61.48828125 C22.31984538 63.43009777 20.35078604 63.30491694 16.75 63.1875 C15.13351562 63.14689453 15.13351562 63.14689453 13.484375 63.10546875 C12.66453125 63.07066406 11.8446875 63.03585937 11 63 C11.8671875 60.55078125 11.8671875 60.55078125 13 58 C15.125 57.1875 15.125 57.1875 17 57 C16.505 55.02 16.505 55.02 16 53 C14.02 53.495 14.02 53.495 12 54 C12.14194764 51.93722893 12.28872216 49.87478969 12.4375 47.8125 C12.51871094 46.66394531 12.59992188 45.51539063 12.68359375 44.33203125 C12.95403812 41.48401829 13.37521747 38.78789518 14 36 C15.65 36 17.3 36 19 36 C19 35.34 19 34.68 19 34 C17.68 34 16.36 34 15 34 C15 31.03 15 28.06 15 25 C16.98 25.33 18.96 25.66 21 26 C21 24.68 21 23.36 21 22 C19.02 21.67 17.04 21.34 15 21 C14.76216797 22.86205078 14.76216797 22.86205078 14.51953125 24.76171875 C14.28494786 26.40380245 14.04920978 28.04572148 13.8125 29.6875 C13.71130859 30.50412109 13.61011719 31.32074219 13.50585938 32.16210938 C12.87493722 36.37394106 12.28469897 38.6287149 9.63671875 42.08203125 C7 44 7 44 3 44 C3 45.65 3 47.3 3 49 C5.31 49 7.62 49 10 49 C10 50.65 10 52.3 10 54 C7.36 54 4.72 54 2 54 C2.020625 54.94875 2.04125 55.8975 2.0625 56.875 C2 60 2 60 1 62 C-2.3 62 -5.6 62 -9 62 C-9 59.36 -9 56.72 -9 54 C-11.31 54 -13.62 54 -16 54 C-15.67 52.35 -15.34 50.7 -15 49 C-11.535 48.505 -11.535 48.505 -8 48 C-7.67 46.68 -7.34 45.36 -7 44 C-8.2065625 43.814375 -8.2065625 43.814375 -9.4375 43.625 C-10.283125 43.41875 -11.12875 43.2125 -12 43 C-15.8086234 35.3827532 -12.42597382 22.13950018 -11 14 C-10.67 13.34 -10.34 12.68 -10 12 C-7.36 12 -4.72 12 -2 12 C-2 11.01 -2 10.02 -2 9 C-4.64 9 -7.28 9 -10 9 C-9.67 7.35 -9.34 5.7 -9 4 C-6.36 4 -3.72 4 -1 4 C-0.67 2.68 -0.34 1.36 0 0 Z " fill="#C7C7C7" transform="translate(301,320)"/>
<path d="M0 0 C2.20789917 6.62369751 -0.57148253 14.46379266 -3.38916016 20.61279297 C-8.05539376 27.52798426 -17.55081344 29.89102401 -25.00097656 32.765625 C-29.58278447 34.65146193 -33.80632333 37.03920152 -38.0625 39.5625 C-39.22289795 40.24590454 -39.22289795 40.24590454 -40.40673828 40.94311523 C-51.50389047 47.58691444 -61.62524001 55.05626346 -71 64 C-71.886875 64.804375 -72.77375 65.60875 -73.6875 66.4375 C-81.18812904 74.74900785 -84.31576265 81.86799316 -86 93 C-91.75129336 86.29015774 -92.72530316 80.62752267 -92.42578125 71.9140625 C-91.13987389 60.09315263 -83.07434425 51.98310873 -75 44 C-74.31421875 43.30390625 -73.6284375 42.6078125 -72.921875 41.890625 C-53.3725643 23.26490378 -24.85032794 9.69714273 0 0 Z " fill="#337AC1" transform="translate(363,155)"/>
<path d="M0 0 C0.66 0.33 1.32 0.66 2 1 C2.495 2.485 2.495 2.485 3 4 C4.31647119 4.69937532 5.65022151 5.36729133 7 6 C7.495 6.99 7.495 6.99 8 8 C8.61875 7.2884375 8.61875 7.2884375 9.25 6.5625 C11.182185 4.83733482 12.48192275 4.43415125 15 4 C15 4.66 15 5.32 15 6 C15.91523438 5.71125 16.83046875 5.4225 17.7734375 5.125 C19.55621094 4.568125 19.55621094 4.568125 21.375 4 C23.15003906 3.443125 23.15003906 3.443125 24.9609375 2.875 C28 2 28 2 30 2 C29.79079261 4.71969609 29.42683961 7.31049608 29 10 C28.93941406 10.92941406 28.87882812 11.85882813 28.81640625 12.81640625 C28.16243035 16.70477461 27.35949944 18.78913478 25 22 C19.02609727 26.13515755 12.18670861 28.87866059 5.57177734 31.81738281 C-4.75112548 36.56431098 -17.79386939 44.58773877 -23 55 C-23.21377721 60.60703213 -23.21377721 60.60703213 -22 66 C-14.48346659 70.00073553 -5.61203665 69.35291938 2.625 69.1875 C3.91535156 69.17396484 5.20570313 69.16042969 6.53515625 69.14648438 C9.69055028 69.11142444 12.84504578 69.06228144 16 69 C5.4112082 76.05919453 -13.76852362 75.18533492 -26 74 C-31.33080378 72.86422737 -34.71555082 71.28444918 -38.5625 67.4375 C-41.50404897 62.44965609 -41.70720179 57.64939106 -41 52 C-35.74457904 37.28973291 -20.05135956 26.38756202 -7 19 C-6.34 19 -5.68 19 -5 19 C-4.67 17.35 -4.34 15.7 -4 14 C-3.01 14.33 -2.02 14.66 -1 15 C-1 12.69 -1 10.38 -1 8 C-3.475 7.505 -3.475 7.505 -6 7 C-4 5 -4 5 -1 4 C-0.26676204 1.98491642 -0.26676204 1.98491642 0 0 Z " fill="#2D6DB4" transform="translate(321,198)"/>
<path d="M0 0 C2.8203125 -0.29296875 2.8203125 -0.29296875 6.125 -0.1875 C7.76855469 -0.14689453 7.76855469 -0.14689453 9.4453125 -0.10546875 C10.70988281 -0.05326172 10.70988281 -0.05326172 12 0 C12 1.32 12 2.64 12 4 C17.28 4 22.56 4 28 4 C28 5.65 28 7.3 28 9 C25.94077598 11.05922402 21.78291876 10.41427579 18.9375 10.5625 C17.79958008 10.62727539 17.79958008 10.62727539 16.63867188 10.69335938 C14.75934562 10.79973633 12.87969756 10.90039934 11 11 C10.67 13.31 10.34 15.62 10 18 C14.95 18 19.9 18 25 18 C25 24.73922902 25 24.73922902 22.0625 27.75 C21.43472656 28.4203125 20.80695312 29.090625 20.16015625 29.78125 C19.44730469 30.5134375 18.73445313 31.245625 18 32 C16.32153679 33.73868888 14.65492418 35.48889133 13 37.25 C12.21625 38.05953125 11.4325 38.8690625 10.625 39.703125 C8.81367434 41.79308985 8.81367434 41.79308985 9.00390625 43.92578125 C10.38553359 46.802817 12.11226712 49.32012266 13.9375 51.9375 C16.45258638 55.54808681 18.53680415 58.8402338 20 63 C9.27216367 63.6249225 9.27216367 63.6249225 4.4375 61.25 C2.29901837 59.27601696 0.57087872 57.44358912 -1 55 C-3.99441238 56.3208757 -5.67507192 57.68727211 -7.8125 60.125 C-12.42463175 64.31045877 -18.13756704 63.49341004 -23.96484375 63.2109375 C-24.96644531 63.14132812 -25.96804688 63.07171875 -27 63 C-22.78437743 57.01929968 -18.02815061 51.79250665 -12.87890625 46.61328125 C-10.76433122 44.19697129 -10.76433122 44.19697129 -10.9609375 41.4921875 C-12.23441228 38.43776302 -13.90963237 36.32228043 -16.0625 33.8125 C-20 29.19683656 -20 29.19683656 -20 27 C-17.58145554 26.86463371 -15.17050217 26.76579721 -12.75 26.6875 C-12.06808594 26.64560547 -11.38617188 26.60371094 -10.68359375 26.56054688 C-8.671875 26.51171875 -8.671875 26.51171875 -5 27 C-2.515625 29.51953125 -2.515625 29.51953125 -1 32 C3.26491106 30.89459074 3.26491106 30.89459074 8 23 C-0.91 23 -9.82 23 -19 23 C-19 21.35 -19 19.7 -19 18 C-14.05 18 -9.1 18 -4 18 C-3.67 15.36 -3.34 12.72 -3 10 C-8.28 10 -13.56 10 -19 10 C-19 5 -19 5 -18 4 C-14.60401156 3.79691763 -11.21526511 3.65304294 -7.81445312 3.5703125 C-5.8688426 3.48564405 -3.93115156 3.25144129 -2 3 C-1.34 2.01 -0.68 1.02 0 0 Z " fill="#090909" transform="translate(492,320)"/>
<path d="M0 0 C1.59122681 -0.03287109 1.59122681 -0.03287109 3.21459961 -0.06640625 C11.58376223 -0.04543255 17.72413904 1.61026656 24.25 6.9375 C27.55981454 11.49281966 27.01917718 17.12438876 26.1875 22.4375 C20.93083846 38.05657566 4.25420326 48.15731249 -9.0234375 56.22265625 C-12.16698425 57.5919042 -14.41949831 57.67270808 -17.8125 57.4375 C-17.8125 58.0975 -17.8125 58.7575 -17.8125 59.4375 C-23.5625 60.5625 -23.5625 60.5625 -25.8125 59.4375 C-25.8125 58.7775 -25.8125 58.1175 -25.8125 57.4375 C-26.4725 57.4375 -27.1325 57.4375 -27.8125 57.4375 C-29.2105877 53.55392305 -28.85793437 50.39122092 -27.8125 46.4375 C-25.47442081 44.74333032 -23.65094862 43.69925638 -21.0625 42.5625 C-19.68828248 41.89309386 -18.31723205 41.21715183 -16.94921875 40.53515625 C-15.90967041 40.02106201 -15.90967041 40.02106201 -14.84912109 39.49658203 C-5.65576916 34.7158627 4.44744044 27.91761913 9.1875 18.4375 C9.68781206 15.02178147 9.68781206 15.02178147 9.1875 11.4375 C5.37603131 7.28972525 0.74160363 5.71113899 -4.78857422 5.11865234 C-5.8045166 5.08723145 -6.82045898 5.05581055 -7.8671875 5.0234375 C-8.97578125 4.98476562 -10.084375 4.94609375 -11.2265625 4.90625 C-12.93972656 4.85984375 -12.93972656 4.85984375 -14.6875 4.8125 C-15.8528125 4.77382812 -17.018125 4.73515625 -18.21875 4.6953125 C-21.08317864 4.60139681 -23.94760692 4.51572017 -26.8125 4.4375 C-26.8125 4.1075 -26.8125 3.7775 -26.8125 3.4375 C-17.87637921 0.75186799 -9.28286452 0.08722063 0 0 Z " fill="#2967B0" transform="translate(395.8125,189.5625)"/>
<path d="M0 0 C3.3 0 6.6 0 10 0 C10 0.99 10 1.98 10 3 C12.31 3 14.62 3 17 3 C16.67 4.65 16.34 6.3 16 8 C13.69 8 11.38 8 9 8 C9 8.99 9 9.98 9 11 C11.31 11 13.62 11 16 11 C15.5679064 17.84527226 15.01378767 24.68355532 14.25 31.5 C14.13140625 32.6240625 14.0128125 33.748125 13.890625 34.90625 C12.76394743 38.81997209 11.183385 40.5054176 8 43 C6.68 43 5.36 43 4 43 C4 44.65 4 46.3 4 48 C6.31 48 8.62 48 11 48 C11 49.65 11 51.3 11 53 C8.36 53 5.72 53 3 53 C3.020625 53.94875 3.04125 54.8975 3.0625 55.875 C3 59 3 59 2 61 C-1.3 61 -4.6 61 -8 61 C-8 58.36 -8 55.72 -8 53 C-10.31 53 -12.62 53 -15 53 C-14.67 51.35 -14.34 49.7 -14 48 C-10.535 47.505 -10.535 47.505 -7 47 C-6.67 45.68 -6.34 44.36 -6 43 C-7.2065625 42.814375 -7.2065625 42.814375 -8.4375 42.625 C-9.283125 42.41875 -10.12875 42.2125 -11 42 C-14.8086234 34.3827532 -11.42597382 21.13950018 -10 13 C-9.67 12.34 -9.34 11.68 -9 11 C-6.36 11 -3.72 11 -1 11 C-1 10.01 -1 9.02 -1 8 C-3.64 8 -6.28 8 -9 8 C-8.67 6.35 -8.34 4.7 -8 3 C-5.36 3 -2.72 3 0 3 C0 2.01 0 1.02 0 0 Z " fill="#070707" transform="translate(300,321)"/>
<path d="M0 0 C4.29 0 8.58 0 13 0 C13.28663568 8.16911679 12.16355007 15.92787136 11 24 C18.59 23.67 26.18 23.34 34 23 C35.485 14.09 35.485 14.09 37 5 C29.74 5 22.48 5 15 5 C15 3.35 15 1.7 15 0 C26.88 0 38.76 0 51 0 C49.43360503 23.49592461 49.43360503 23.49592461 45.52661133 27.5949707 C41.48138498 30.85578094 37.61110789 30.70698437 32.5859375 30.62890625 C31.69387604 30.63131821 30.80181458 30.63373016 29.88272095 30.63621521 C28.00510187 30.63523931 26.12745311 30.62190711 24.25 30.59692383 C21.37661248 30.56251931 18.50628657 30.57630104 15.6328125 30.59570312 C13.80467442 30.58880679 11.97654426 30.57913634 10.1484375 30.56640625 C8.86240128 30.57384605 8.86240128 30.57384605 7.55038452 30.58143616 C1.61764493 30.46416844 1.61764493 30.46416844 -1.54077148 28.09057617 C-4.87170331 23.3184883 -3.24158412 17.22828166 -2.31640625 11.7890625 C-1.60474909 7.84636838 -0.81749122 3.92201147 0 0 Z " fill="#0B0B0B" transform="translate(209,353)"/>
<path d="M0 0 C11.22 0 22.44 0 34 0 C34 1.32 34 2.64 34 4 C31.47524538 5.26237731 29.68799534 5.09856404 26.875 5.0625 C25.96492188 5.05347656 25.05484375 5.04445313 24.1171875 5.03515625 C23.41851562 5.02355469 22.71984375 5.01195312 22 5 C22 7.97 22 10.94 22 14 C25.63 14 29.26 14 33 14 C32 19 32 19 31 20 C29.14712498 20.07226502 27.29166122 20.0838122 25.4375 20.0625 C24.42558594 20.05347656 23.41367187 20.04445313 22.37109375 20.03515625 C21.19740234 20.01775391 21.19740234 20.01775391 20 20 C20.03867187 21.15628906 20.07734375 22.31257813 20.1171875 23.50390625 C20.11464508 29.99344356 19.24141941 36.39022952 18.40087891 42.8137207 C18.12259695 44.95599924 17.85974705 47.0998279 17.59765625 49.24414062 C17.4227994 50.6094937 17.247051 51.97473297 17.0703125 53.33984375 C16.91320801 54.57081787 16.75610352 55.80179199 16.59423828 57.07006836 C16 60 16 60 14 62 C11.3984375 62.1953125 11.3984375 62.1953125 8.375 62.125 C7.37210937 62.10695313 6.36921875 62.08890625 5.3359375 62.0703125 C4.17964844 62.03550781 4.17964844 62.03550781 3 62 C2.69810356 54.31624859 3.8440867 46.90585808 4.9375 39.3125 C5.11990234 38.00732422 5.30230469 36.70214844 5.49023438 35.35742188 C6.2175907 30.20244925 6.97864238 25.10678808 8 20 C4.04 20 0.08 20 -4 20 C-3 15 -3 15 -2 14 C-0.14712498 13.92773498 1.70833878 13.9161878 3.5625 13.9375 C4.57441406 13.94652344 5.58632813 13.95554687 6.62890625 13.96484375 C7.80259766 13.98224609 7.80259766 13.98224609 9 14 C9.33 11.03 9.66 8.06 10 5 C6.04 5 2.08 5 -2 5 C-1.34 3.35 -0.68 1.7 0 0 Z " fill="#070707" transform="translate(363,321)"/>
<path d="M0 0 C3.96 0 7.92 0 12 0 C12 1.32 12 2.64 12 4 C17.94 4 23.88 4 30 4 C29 9 29 9 28 10 C26.65732587 10.08631874 25.31025678 10.10706473 23.96484375 10.09765625 C23.15595703 10.09443359 22.34707031 10.09121094 21.51367188 10.08789062 C20.66353516 10.07951172 19.81339844 10.07113281 18.9375 10.0625 C18.08349609 10.05798828 17.22949219 10.05347656 16.34960938 10.04882812 C14.23304337 10.03700373 12.11651315 10.01906769 10 10 C10.01160156 10.75925781 10.02320313 11.51851563 10.03515625 12.30078125 C10.04417969 13.29464844 10.05320313 14.28851563 10.0625 15.3125 C10.07410156 16.29863281 10.08570313 17.28476562 10.09765625 18.30078125 C10 21 10 21 9 24 C15.6 24 22.2 24 29 24 C28 29 28 29 27 30 C25.28134591 30.0935919 23.55884256 30.11744611 21.83764648 30.11352539 C20.73658066 30.11344986 19.63551483 30.11337433 18.50108337 30.11329651 C17.3031868 30.10813522 16.10529022 30.10297394 14.87109375 30.09765625 C13.65172623 30.0962413 12.4323587 30.09482635 11.17604065 30.09336853 C7.2631693 30.08774967 3.35035419 30.07519396 -0.5625 30.0625 C-3.20768147 30.05748743 -5.85286383 30.0529241 -8.49804688 30.04882812 C-14.99871726 30.03777411 -21.49935461 30.02101764 -28 30 C-27.125 25.125 -27.125 25.125 -26 24 C-24.43827255 23.91314397 -22.87270656 23.89297781 -21.30859375 23.90234375 C-20.36435547 23.90556641 -19.42011719 23.90878906 -18.44726562 23.91210938 C-16.95743164 23.92467773 -16.95743164 23.92467773 -15.4375 23.9375 C-14.44041016 23.94201172 -13.44332031 23.94652344 -12.41601562 23.95117188 C-9.94395151 23.96299993 -7.47200482 23.97948151 -5 24 C-4.90912109 22.73542969 -4.90912109 22.73542969 -4.81640625 21.4453125 C-4.73261719 20.34960938 -4.64882812 19.25390625 -4.5625 18.125 C-4.48128906 17.03445313 -4.40007812 15.94390625 -4.31640625 14.8203125 C-4 12 -4 12 -3 10 C-7.06196123 10.19501473 -7.06196123 10.19501473 -11 11 C-11.61875 11.845625 -12.2375 12.69125 -12.875 13.5625 C-15 16 -15 16 -17.4609375 16.328125 C-19.99079284 16.31395214 -22.47984169 16.21642581 -25 16 C-24.50341703 10.33895411 -23.45489316 6.12325529 -21 1 C-16.71 1 -12.42 1 -8 1 C-8 1.66 -8 2.32 -8 3 C-5.03 3.495 -5.03 3.495 -2 4 C-1.34 2.68 -0.68 1.36 0 0 Z " fill="#111111" transform="translate(235,320)"/>
<path d="M0 0 C4.29 0 8.58 0 13 0 C13 1.98 13 3.96 13 6 C15.31 6 17.62 6 20 6 C19.125 10.875 19.125 10.875 18 12 C15.66702567 12.04092937 13.33294775 12.04241723 11 12 C11.04125 13.19625 11.0825 14.3925 11.125 15.625 C11.14592234 22.16323279 10.02622968 28.55857623 9 35 C11.31 35 13.62 35 16 35 C16.042721 36.66611905 16.04063832 38.33382885 16 40 C14.03177114 41.96822886 10.65191291 41.66248381 8 42 C7.91363281 42.95261719 7.82726562 43.90523438 7.73828125 44.88671875 C7.59777344 46.14097656 7.45726562 47.39523437 7.3125 48.6875 C7.18488281 49.92886719 7.05726563 51.17023438 6.92578125 52.44921875 C5.79930554 56.76975217 4.61975652 58.40321815 1 61 C-2.55078125 61.48828125 -2.55078125 61.48828125 -6.3125 61.3125 C-7.56675781 61.26738281 -8.82101562 61.22226562 -10.11328125 61.17578125 C-11.54220703 61.08876953 -11.54220703 61.08876953 -13 61 C-13 59.35 -13 57.7 -13 56 C-12.20207031 55.78601563 -11.40414063 55.57203125 -10.58203125 55.3515625 C-7.75510016 54.24418405 -7.75510016 54.24418405 -7.07421875 51.3984375 C-6.88279297 49.90183594 -6.88279297 49.90183594 -6.6875 48.375 C-6.54699219 47.37210937 -6.40648437 46.36921875 -6.26171875 45.3359375 C-6.17535156 44.56507813 -6.08898437 43.79421875 -6 43 C-8.31 43 -10.62 43 -13 43 C-13.042721 41.33388095 -13.04063832 39.66617115 -13 38 C-12 37 -12 37 -8.4375 36.9375 C-7.303125 36.958125 -6.16875 36.97875 -5 37 C-4.95101563 36.20078125 -4.90203125 35.4015625 -4.8515625 34.578125 C-4.33230084 26.95035031 -3.39489515 19.5161826 -2 12 C-3.98 12 -5.96 12 -8 12 C-8.042721 10.33388095 -8.04063832 8.66617115 -8 7 C-7 6 -7 6 -3.9375 5.9375 C-2.4834375 5.9684375 -2.4834375 5.9684375 -1 6 C-0.67 4.02 -0.34 2.04 0 0 Z " fill="#070707" transform="translate(451,321)"/>
<path d="M0 0 C3.3 0 6.6 0 10 0 C9.36067443 8.27318838 8.54338821 16.51053902 7.5625 24.75 C7.44068359 25.82121094 7.31886719 26.89242188 7.19335938 27.99609375 C6.50281483 33.81384206 5.57476844 39.35537548 4 45 C5.65 45 7.3 45 9 45 C9.042721 46.66611905 9.04063832 48.33382885 9 50 C8.67 50.33 8.34 50.66 8 51 C6.35 51 4.7 51 3 51 C2.67 54.63 2.34 58.26 2 62 C-1.96 62 -5.92 62 -10 62 C-9.34 58.37 -8.68 54.74 -8 51 C-15.59 51 -23.18 51 -31 51 C-30 46 -30 46 -29 45 C-27.36527118 44.91299658 -25.72685945 44.89298937 -24.08984375 44.90234375 C-23.10048828 44.90556641 -22.11113281 44.90878906 -21.09179688 44.91210938 C-20.05087891 44.92048828 -19.00996094 44.92886719 -17.9375 44.9375 C-16.37032227 44.94426758 -16.37032227 44.94426758 -14.77148438 44.95117188 C-12.1809334 44.96300087 -9.59049441 44.97948311 -7 45 C-6.95029053 44.23051025 -6.90058105 43.46102051 -6.84936523 42.66821289 C-6.25608296 34.20045676 -5.26774762 25.83838952 -4.0625 17.4375 C-3.89298828 16.19419922 -3.72347656 14.95089844 -3.54882812 13.66992188 C-3.37931641 12.47818359 -3.20980469 11.28644531 -3.03515625 10.05859375 C-2.8844165 8.98923584 -2.73367676 7.91987793 -2.57836914 6.81811523 C-2 4 -2 4 0 0 Z " fill="#090909" transform="translate(424,321)"/>
<path d="M0 0 C0.33 0 0.66 0 1 0 C1 2.97 1 5.94 1 9 C1.78375 9.061875 2.5675 9.12375 3.375 9.1875 C6 10 6 10 7.375 12.375 C8 15 8 15 7 18 C6.01 16.35 5.02 14.7 4 13 C3.90203125 13.6290625 3.8040625 14.258125 3.703125 14.90625 C0.62340043 32.53501821 -11.9998343 44.34500038 -26.01611328 54.45410156 C-38.20044941 63 -38.20044941 63 -41 63 C-40.75 60.125 -40.75 60.125 -40 57 C-37.9375 55.625 -37.9375 55.625 -36 55 C-36.9590625 54.7215625 -36.9590625 54.7215625 -37.9375 54.4375 C-38.618125 53.963125 -39.29875 53.48875 -40 53 C-40.4067333 50.67833603 -40.74501373 48.34318961 -41 46 C-40.51233154 45.71390869 -40.02466309 45.42781738 -39.5222168 45.13305664 C-15.87131528 31.79788799 -15.87131528 31.79788799 -1 10 C-0.43680059 6.66853232 -0.13829584 3.37441859 0 0 Z " fill="#F4F8F7" transform="translate(422,202)"/>
<path d="M0 0 C4.95 0 9.9 0 15 0 C14.63101601 10.23930579 13.68905313 20.18356865 12.125 30.3125 C11.96354492 31.40361084 11.80208984 32.49472168 11.63574219 33.61889648 C11.38679199 35.16299194 11.38679199 35.16299194 11.1328125 36.73828125 C10.91455811 38.11560425 10.91455811 38.11560425 10.69189453 39.52075195 C9.91665403 42.29865148 8.98289669 43.91376799 7 46 C4.08203125 46.390625 4.08203125 46.390625 0.8125 46.25 C-0.27417969 46.21390625 -1.36085938 46.1778125 -2.48046875 46.140625 C-3.31191406 46.09421875 -4.14335937 46.0478125 -5 46 C-4.1328125 43.55078125 -4.1328125 43.55078125 -3 41 C-0.875 40.1875 -0.875 40.1875 1 40 C0.67 38.68 0.34 37.36 0 36 C-1.98 36.495 -1.98 36.495 -4 37 C-3.85805236 34.93722893 -3.71127784 32.87478969 -3.5625 30.8125 C-3.44068359 29.08966797 -3.44068359 29.08966797 -3.31640625 27.33203125 C-3.04596188 24.48401829 -2.62478253 21.78789518 -2 19 C-0.35 19 1.3 19 3 19 C3 18.34 3 17.68 3 17 C1.68 17 0.36 17 -1 17 C-1 14.03 -1 11.06 -1 8 C1.97 8.495 1.97 8.495 5 9 C5 7.68 5 6.36 5 5 C3.35 4.67 1.7 4.34 0 4 C0 2.68 0 1.36 0 0 Z " fill="#0A0A0A" transform="translate(317,337)"/>
<path d="M0 0 C4.95 0 9.9 0 15 0 C14.57750158 9.82308827 13.50545437 19.45115274 12.125 29.1875 C11.96354492 30.38157471 11.80208984 31.57564941 11.63574219 32.8059082 C11.46977539 33.93601318 11.30380859 35.06611816 11.1328125 36.23046875 C10.98730957 37.24520264 10.84180664 38.25993652 10.69189453 39.30541992 C9.94322987 42.22109103 9.07825573 43.83601026 7 46 C4.30078125 46.390625 4.30078125 46.390625 1.3125 46.25 C0.31863281 46.21390625 -0.67523438 46.1778125 -1.69921875 46.140625 C-2.45847656 46.09421875 -3.21773438 46.0478125 -4 46 C-3.67 44.35 -3.34 42.7 -3 41 C-1.68 41 -0.36 41 1 41 C1.06058594 39.92621094 1.12117188 38.85242188 1.18359375 37.74609375 C1.26807651 36.30988685 1.35272054 34.87368942 1.4375 33.4375 C1.47681641 32.73302734 1.51613281 32.02855469 1.55664062 31.30273438 C1.82518279 26.8201459 2.30616197 22.43706503 3 18 C1.68 18 0.36 18 -1 18 C-1 15.03 -1 12.06 -1 9 C3 10 3 10 4 11 C4.33 9.35 4.66 7.7 5 6 C3.35 6 1.7 6 0 6 C0 4.02 0 2.04 0 0 Z " fill="#0D0D0D" transform="translate(334,336)"/>
<path d="M0 0 C4.29 0 8.58 0 13 0 C11.89168334 8.26199691 10.40802803 16.40755852 8.6875 24.5625 C8.49905518 25.52623535 8.31061035 26.4899707 8.11645508 27.48291016 C7.19198999 31.71895326 6.57009684 34.36499114 3.6328125 37.63671875 C0.83787007 39.08395155 -0.70066465 39.43578122 -3.8125 39.25 C-4.60269531 39.21390625 -5.39289063 39.1778125 -6.20703125 39.140625 C-6.79871094 39.09421875 -7.39039063 39.0478125 -8 39 C-7.28144925 31.94023884 -5.86843056 25.05820366 -4.41601562 18.11621094 C-3.99678904 16.10963111 -3.58403161 14.10179261 -3.171875 12.09375 C-1.12832099 2.25664199 -1.12832099 2.25664199 0 0 Z " fill="#090909" transform="translate(190,344)"/>
<path d="M0 0 C4.29 0 8.58 0 13 0 C12.36851219 7.59188678 11.17336036 14.91890754 9.625 22.375 C9.31175781 23.97408203 9.31175781 23.97408203 8.9921875 25.60546875 C8.78078125 26.63027344 8.569375 27.65507812 8.3515625 28.7109375 C8.07046631 30.09224854 8.07046631 30.09224854 7.78369141 31.50146484 C6.92956596 34.22455514 5.9360877 35.91192656 4 38 C0.64653664 38.52810447 -2.61914985 38.17562858 -6 38 C-5.47453066 29.2534781 -4.17061866 20.83306385 -2.4375 12.25 C-2.20353516 11.0640625 -1.96957031 9.878125 -1.72851562 8.65625 C-1.15818394 5.76967328 -0.57992873 2.88466394 0 0 Z " fill="#070707" transform="translate(274,344)"/>
<path d="M0 0 C0.33 1.98 0.66 3.96 1 6 C-2.02734375 6.24414062 -2.02734375 6.24414062 -5.0546875 6.48828125 C-7.39519216 6.87393036 -7.39519216 6.87393036 -9 10 C-9 11.32 -9 12.64 -9 14 C-6.525 14.495 -6.525 14.495 -4 15 C-3.67 16.98 -3.34 18.96 -3 21 C-3.66 21 -4.32 21 -5 21 C-5.07476562 21.53882813 -5.14953125 22.07765625 -5.2265625 22.6328125 C-6.30038745 25.91936765 -8.268128 28.14083925 -10.375 30.875 C-15.30677408 37.56072396 -16.92108308 43.72830361 -18 52 C-23.75129336 45.29015774 -24.72530316 39.62752267 -24.42578125 30.9140625 C-23.16816013 19.35317846 -15.2148266 10.64086492 -7 3 C-2.57324841 0 -2.57324841 0 0 0 Z " fill="#24549B" transform="translate(295,196)"/>
<path d="M0 0 C1.231394 3.69418201 0.64432764 6.2056261 0 10 C0.804375 10.144375 1.60875 10.28875 2.4375 10.4375 C5 11 5 11 6 12 C7.32 12 8.64 12 10 12 C10 11.34 10 10.68 10 10 C11.65 10 13.3 10 15 10 C14.01 10.495 14.01 10.495 13 11 C13.87472593 15.95514502 13.87472593 15.95514502 17.125 19.4375 C17.74375 19.623125 18.3625 19.80875 19 20 C16 22 16 22 14 22 C13.67 23.98 13.34 25.96 13 28 C14.98 27.01 16.96 26.02 19 25 C19 25.66 19 26.32 19 27 C16 29 16 29 13 29 C12.67 29.99 12.34 30.98 12 32 C10.68 31.67 9.36 31.34 8 31 C8.99 30.34 9.98 29.68 11 29 C11.25015873 25.41642759 11.25015873 25.41642759 11 22 C9.35 21.67 7.7 21.34 6 21 C7 19 7 19 10 18 C10.33 16.35 10.66 14.7 11 13 C10.40050537 13.29245605 9.80101074 13.58491211 9.18334961 13.88623047 C6.43753056 15.22166209 3.68758653 16.54838019 0.9375 17.875 C-0.00544922 18.33519531 -0.94839844 18.79539063 -1.91992188 19.26953125 C-6.89467679 21.66157368 -11.62940771 23.70390699 -17 25 C-16.55270031 22.90113223 -16.09717146 20.80375528 -15.60546875 18.71484375 C-15.19300332 16.86540198 -14.84369509 15.00100777 -14.55078125 13.12890625 C-13.16769252 5.89957011 -13.16769252 5.89957011 -9.65234375 3.19140625 C-3.36898017 0 -3.36898017 0 0 0 Z " fill="#3F8FD0" transform="translate(368,237)"/>
<path d="M0 0 C1.01892334 0.00821777 2.03784668 0.01643555 3.08764648 0.02490234 C4.19688477 0.02876953 5.30612305 0.03263672 6.44897461 0.03662109 C8.18630859 0.07335937 8.18630859 0.07335937 9.95874023 0.11083984 C11.701875 0.11277344 11.701875 0.11277344 13.48022461 0.11474609 C22.11556894 0.20516855 22.11556894 0.20516855 24.39624023 2.48583984 C24.59155273 5.30615234 24.59155273 5.30615234 24.52124023 8.61083984 C24.50319336 9.70654297 24.48514648 10.80224609 24.46655273 11.93115234 C24.44334961 12.77419922 24.42014648 13.61724609 24.39624023 14.48583984 C22.75049458 14.51272135 21.1046261 14.53218108 19.45874023 14.54833984 C18.5422168 14.55994141 17.62569336 14.57154297 16.68139648 14.58349609 C14.39624023 14.48583984 14.39624023 14.48583984 13.39624023 13.48583984 C13.25508862 10.81525133 13.35376916 8.16151747 13.39624023 5.48583984 C9.28923246 5.52587039 9.28923246 5.52587039 5.39624023 6.48583984 C3.70640516 8.77564893 3.20661163 10.70018818 2.39624023 13.48583984 C-0.90375977 13.48583984 -4.20375977 13.48583984 -7.60375977 13.48583984 C-5.21148837 0.97242024 -5.21148837 0.97242024 0 0 Z " fill="#0C0C0C" transform="translate(325.603759765625,320.51416015625)"/>
<path d="M0 0 C2.64 0 5.28 0 8 0 C8.68569242 12.77419579 6.66574148 25.36665038 5 38 C2.125 38.1875 2.125 38.1875 -1 38 C-3.64186424 34.03720364 -3.06553017 30.86771435 -2.75 26.3125 C-2.6991626 25.47485107 -2.6483252 24.63720215 -2.59594727 23.77416992 C-2.07167347 15.80475689 -1.12301567 7.90472195 0 0 Z " fill="#090909" transform="translate(385,344)"/>
<path d="M0 0 C0.66 0.33 1.32 0.66 2 1 C2.33 1.99 2.66 2.98 3 4 C4.31647119 4.69937532 5.65022151 5.36729133 7 6 C7.33 6.66 7.66 7.32 8 8 C8.4125 7.525625 8.825 7.05125 9.25 6.5625 C11.182185 4.83733482 12.48192275 4.43415125 15 4 C15 4.66 15 5.32 15 6 C15.91523438 5.71125 16.83046875 5.4225 17.7734375 5.125 C19.55621094 4.568125 19.55621094 4.568125 21.375 4 C22.55835938 3.62875 23.74171875 3.2575 24.9609375 2.875 C28 2 28 2 30 2 C29.47232264 8.85980569 28.11576317 15.81793022 25 22 C22.86328125 22.84765625 22.86328125 22.84765625 21 23 C20.67 22.34 20.34 21.68 20 21 C20.350625 20.21625 20.70125 19.4325 21.0625 18.625 C22.30300466 16.04642399 22.30300466 16.04642399 21.125 13.6875 C20.75375 13.130625 20.3825 12.57375 20 12 C16.15824562 11.91065687 12.74742665 12.16723852 9 13 C8.34 13 7.68 13 7 13 C6.67 13.99 6.34 14.98 6 16 C5.67 15.34 5.34 14.68 5 14 C4.44570313 14.28875 3.89140625 14.5775 3.3203125 14.875 C2.59585937 15.24625 1.87140625 15.6175 1.125 16 C0.40570313 16.37125 -0.31359375 16.7425 -1.0546875 17.125 C-3 18 -3 18 -5 18 C-4.67 16.68 -4.34 15.36 -4 14 C-3.01 14.33 -2.02 14.66 -1 15 C-1 12.69 -1 10.38 -1 8 C-2.65 7.67 -4.3 7.34 -6 7 C-4 5 -4 5 -1 4 C-0.26676204 1.98491642 -0.26676204 1.98491642 0 0 Z " fill="#4191D5" transform="translate(321,198)"/>
<path d="M0 0 C1.670625 0.061875 1.670625 0.061875 3.375 0.125 C2.75551481 4.43309883 2.11604914 8.73762625 1.45849609 13.04003906 C1.23790827 14.50179674 1.02264974 15.96436956 0.81298828 17.42773438 C0.50936165 19.54016989 0.18621419 21.64885902 -0.140625 23.7578125 C-0.32915039 25.02512207 -0.51767578 26.29243164 -0.71191406 27.59814453 C-1.72363931 31.50600092 -3.08400047 34.00136962 -5.625 37.125 C-8.875 38 -8.875 38 -11.625 38.125 C-8.79581802 0.30330407 -8.79581802 0.30330407 0 0 Z " fill="#0C0C0C" transform="translate(365.625,343.875)"/>
<path d="M0 0 C0.33 0 0.66 0 1 0 C1 4.29 1 8.58 1 13 C3.475 13.495 3.475 13.495 6 14 C7.1240625 14.51175781 8.248125 15.02351563 9.40625 15.55078125 C15.53463088 17.9194811 22.03408703 17.31563547 28.5 17.1875 C30.4490625 17.16719727 30.4490625 17.16719727 32.4375 17.14648438 C35.62543412 17.11132334 38.81249599 17.06210664 42 17 C31.4112082 24.05919453 12.23147638 23.18533492 0 22 C-5.1969303 20.89275024 -8.61550705 19.18670824 -12.625 15.75 C-14.53150012 11.93699977 -14.28692351 9.23212178 -14 5 C-11.3534665 7.6465335 -10.40058003 10.56221264 -9 14 C-8.21625 13.814375 -7.4325 13.62875 -6.625 13.4375 C-4 13 -4 13 -2 14 C-2.02320313 13.15695312 -2.04640625 12.31390625 -2.0703125 11.4453125 C-2.08835937 10.34960938 -2.10640625 9.25390625 -2.125 8.125 C-2.14820313 7.03445313 -2.17140625 5.94390625 -2.1953125 4.8203125 C-2 2 -2 2 0 0 Z " fill="#255DA8" transform="translate(295,250)"/>
<path d="M0 0 C5.0302076 0.52537724 10.01885239 1.10594786 15 2 C15.1970602 3.56132309 15.38220155 5.12415264 15.5625 6.6875 C15.66691406 7.55761719 15.77132813 8.42773438 15.87890625 9.32421875 C16.0043928 12.09706674 15.56704163 14.29310056 15 17 C14.91004801 19.06095876 14.86987475 21.12458553 14.875 23.1875 C14.87242187 24.23292969 14.86984375 25.27835937 14.8671875 26.35546875 C14.82133277 28.97748861 14.82133277 28.97748861 16 31 C18.02463255 31.65213292 18.02463255 31.65213292 20 32 C19.67 33.65 19.34 35.3 19 37 C15.535 37.495 15.535 37.495 12 38 C11.67 39.32 11.34 40.64 11 42 C13.31 42 15.62 42 18 42 C18 42.33 18 42.66 18 43 C16.72125 43.061875 15.4425 43.12375 14.125 43.1875 C13.04605469 43.23970703 13.04605469 43.23970703 11.9453125 43.29296875 C11.30335938 43.19628906 10.66140625 43.09960938 10 43 C6.85090259 38.27635388 8.46763233 33.87411509 9.46533203 28.48779297 C9.97263638 25.96494255 10.51066859 23.45096534 11.0625 20.9375 C11.24876953 20.07189453 11.43503906 19.20628906 11.62695312 18.31445312 C12.08066267 16.20877549 12.53976004 14.10425993 13 12 C12.34 11.67 11.68 11.34 11 11 C11.66 11 12.32 11 13 11 C12.67 10.34 12.34 9.68 12 9 C9.71573609 8.38479304 9.71573609 8.38479304 7.0625 8 C2.21955403 7.21955403 2.21955403 7.21955403 0 5 C-0.125 2.375 -0.125 2.375 0 0 Z " fill="#E2E2E2" transform="translate(274,332)"/>
<path d="M0 0 C4.46797338 1.39878802 8.63822079 3.13630772 12.875 5.125 C14.60363281 5.93324219 14.60363281 5.93324219 16.3671875 6.7578125 C17.23601562 7.16773438 18.10484375 7.57765625 19 8 C19.125 13.75 19.125 13.75 18 16 C11.76888476 14.22586302 6.16633272 11.99336432 1 8 C-0.35439668 5.29120665 -0.06501451 2.99066732 0 0 Z " fill="#0D0D0D" transform="translate(400,324)"/>
<path d="M0 0 C0.66 0.99 1.32 1.98 2 3 C4.05925139 3.72382467 4.05925139 3.72382467 6 4 C6 5.32 6 6.64 6 8 C3.03 7.505 3.03 7.505 0 7 C0 9.97 0 12.94 0 16 C1.32 16 2.64 16 4 16 C4 16.66 4 17.32 4 18 C2.35 18 0.7 18 -1 18 C-1.06058594 18.79664063 -1.12117188 19.59328125 -1.18359375 20.4140625 C-2.01581722 30.93848858 -2.01581722 30.93848858 -3 36 C-2.34 36.33 -1.68 36.66 -1 37 C-1.99 37 -2.98 37 -4 37 C-4.33 35.02 -4.66 33.04 -5 31 C-7.31 31 -9.62 31 -12 31 C-12 29.35 -12 27.7 -12 26 C-11.05125 25.731875 -10.1025 25.46375 -9.125 25.1875 C-5.74732727 24.25013412 -5.74732727 24.25013412 -4 21 C-3.47427743 19.02869623 -3.47427743 19.02869623 -3.18359375 16.875 C-3.05919922 16.08609375 -2.93480469 15.2971875 -2.80664062 14.484375 C-2.68482422 13.66453125 -2.56300781 12.8446875 -2.4375 12 C-2.18833401 10.3746711 -1.93711432 8.74965537 -1.68359375 7.125 C-1.57587646 6.40570313 -1.46815918 5.68640625 -1.35717773 4.9453125 C-1 3 -1 3 0 0 Z " fill="#E0E0E0" transform="translate(316,338)"/>
<path d="M0 0 C2.58436814 0.9556152 5.16749301 1.91437889 7.75 2.875 C8.47960937 3.14441406 9.20921875 3.41382813 9.9609375 3.69140625 C13.40110416 4.97365019 16.76479567 6.24617871 20 8 C19.67 10.31 19.34 12.62 19 15 C15.15706528 14.37115614 11.91660356 13.2348198 8.375 11.625 C7.43398438 11.20476562 6.49296875 10.78453125 5.5234375 10.3515625 C1.49132562 8.1919484 1.49132562 8.1919484 0 6 C-0.1875 2.8125 -0.1875 2.8125 0 0 Z " fill="#0D0D0D" transform="translate(397,343)"/>
<path d="M0 0 C1.32 0 2.64 0 4 0 C4.02719556 2.37507855 4.04693247 4.74983964 4.0625 7.125 C4.07087891 7.79015625 4.07925781 8.4553125 4.08789062 9.140625 C4.10782292 13.20681354 3.78890161 17.0120092 3 21 C1.68 21.33 0.36 21.66 -1 22 C-1.33 23.32 -1.66 24.64 -2 26 C1.3 26 4.6 26 8 26 C8 26.33 8 26.66 8 27 C4.37 27 0.74 27 -3 27 C-3.33 26.01 -3.66 25.02 -4 24 C-4.99 24 -5.98 24 -7 24 C-6.01 21.03 -5.02 18.06 -4 15 C-3.67 15 -3.34 15 -3 15 C-2.01 10.05 -1.02 5.1 0 0 Z " fill="#BABABA" transform="translate(332,356)"/>
<path d="M0 0 C2.97 0.495 2.97 0.495 6 1 C5.58465575 5.29411643 5.13900836 9.58454742 4.6875 13.875 C4.56955078 15.09832031 4.45160156 16.32164062 4.33007812 17.58203125 C4.14155273 19.33193359 4.14155273 19.33193359 3.94921875 21.1171875 C3.83924561 22.19597168 3.72927246 23.27475586 3.6159668 24.38623047 C3 27 3 27 0 29 C-0.99 29 -1.98 29 -3 29 C-2.85805236 26.93722893 -2.71127784 24.87478969 -2.5625 22.8125 C-2.48128906 21.66394531 -2.40007812 20.51539063 -2.31640625 19.33203125 C-2.04596188 16.48401829 -1.62478253 13.78789518 -1 11 C0.65 11 2.3 11 4 11 C4 10.34 4 9.68 4 9 C2.68 9 1.36 9 0 9 C0 6.03 0 3.06 0 0 Z " fill="#AAAAAA" transform="translate(316,345)"/>
<path d="M0 0 C0 0.33 0 0.66 0 1 C-1.98 1.33 -3.96 1.66 -6 2 C-6 2.66 -6 3.32 -6 4 C-5.34 4 -4.68 4 -4 4 C-2.35173889 6.96687001 -1.55728913 9.65626525 -1 13 C-1.43570313 12.59007812 -1.87140625 12.18015625 -2.3203125 11.7578125 C-2.91585937 11.21898437 -3.51140625 10.68015625 -4.125 10.125 C-4.70507812 9.59132812 -5.28515625 9.05765625 -5.8828125 8.5078125 C-10.21505917 5.42248553 -14.83848108 4.74726347 -20.0546875 4.5859375 C-21.16328125 4.54726562 -22.271875 4.50859375 -23.4140625 4.46875 C-25.12722656 4.42234375 -25.12722656 4.42234375 -26.875 4.375 C-28.0403125 4.33632812 -29.205625 4.29765625 -30.40625 4.2578125 C-33.27067864 4.16389681 -36.13510692 4.07822017 -39 4 C-39 3.67 -39 3.34 -39 3 C-26.14138088 -0.86448661 -13.29028953 -0.305254 0 0 Z " fill="#346AAE" transform="translate(408,190)"/>
<path d="M0 0 C0.66 0.33 1.32 0.66 2 1 C2.33 1.99 2.66 2.98 3 4 C4.31647119 4.69937532 5.65022151 5.36729133 7 6 C7.33 6.66 7.66 7.32 8 8 C8.4125 7.525625 8.825 7.05125 9.25 6.5625 C11.182185 4.83733482 12.48192275 4.43415125 15 4 C15 4.66 15 5.32 15 6 C15.99 6.33 16.98 6.66 18 7 C15.29466468 8.46413471 12.58599307 9.92140832 9.875 11.375 C8.73417969 11.99375 8.73417969 11.99375 7.5703125 12.625 C3.4541422 14.82502206 -0.49480694 16.69018349 -5 18 C-4.67 16.68 -4.34 15.36 -4 14 C-3.01 14.33 -2.02 14.66 -1 15 C-1 12.69 -1 10.38 -1 8 C-2.65 7.67 -4.3 7.34 -6 7 C-4 5 -4 5 -1 4 C-0.26676204 1.98491642 -0.26676204 1.98491642 0 0 Z " fill="#F1F8F8" transform="translate(321,198)"/>
<path d="M0 0 C-4.55307793 3.57335137 -9.56978045 6.08204556 -14.6875 8.75 C-15.70593994 9.28206055 -16.72437988 9.81412109 -17.77368164 10.36230469 C-26.32438122 14.76926038 -35.01605474 18.57524771 -44 22 C-44.625 20.125 -44.625 20.125 -45 18 C-44.34 17.34 -43.68 16.68 -43 16 C-43 16.66 -43 17.32 -43 18 C-40.99759451 17.68143549 -38.99788438 17.34578768 -37 17 C-36.236875 16.87625 -35.47375 16.7525 -34.6875 16.625 C-34.130625 16.41875 -33.57375 16.2125 -33 16 C-32.67 15.01 -32.34 14.02 -32 13 C-31.34 12.34 -30.68 11.68 -30 11 C-29.3574765 8.93125966 -29.3574765 8.93125966 -29 7 C-27.68 7 -26.36 7 -25 7 C-25 7.66 -25 8.32 -25 9 C-22.52733235 8.65555119 -22.52733235 8.65555119 -20 8 C-19.67 7.34 -19.34 6.68 -19 6 C-17.9171875 6.1546875 -17.9171875 6.1546875 -16.8125 6.3125 C-12.86740058 5.87415562 -11.64495136 3.84840916 -9 1 C-5.70805202 -1.26321424 -3.8027324 -1.05631456 0 0 Z " fill="#5097D2" transform="translate(384,284)"/>
<path d="M0 0 C-1.15173355 2.46800047 -2.04783565 4.04783565 -4 6 C-4.99 6 -5.98 6 -7 6 C-6.67 6.99 -6.34 7.98 -6 9 C-7.216875 8.95875 -8.43375 8.9175 -9.6875 8.875 C-13.21300624 8.8875018 -15.91436592 9.12991874 -19 11 C-19.76230794 12.8817921 -19.76230794 12.8817921 -20 15 C-21.07387444 17.64338324 -21.99002222 18.99090262 -24.125 20.9375 C-26.26752004 22.87788094 -26.26752004 22.87788094 -26.25 25.75 C-26.1675 26.4925 -26.085 27.235 -26 28 C-26.99 28 -27.98 28 -29 28 C-28.9108799 26.64475992 -28.80272007 25.290771 -28.6875 23.9375 C-28.62949219 23.18339844 -28.57148438 22.42929687 -28.51171875 21.65234375 C-27.71971699 17.54723537 -26.84956962 13.5113965 -23.4777832 10.75610352 C-21.62825937 9.66036328 -19.76086678 8.72051379 -17.8125 7.8125 C-16.80473511 7.31169922 -16.80473511 7.31169922 -15.77661133 6.80078125 C-14.45350966 6.1453907 -13.12604457 5.49872015 -11.79394531 4.86181641 C-9.56528209 3.79116028 -7.37905784 2.6443005 -5.1875 1.5 C-2 0 -2 0 0 0 Z " fill="#52A2DE" transform="translate(370,272)"/>
<path d="M0 0 C2.64 0 5.28 0 8 0 C8.33 2.64 8.66 5.28 9 8 C12.3 8.33 15.6 8.66 19 9 C18.67 10.32 18.34 11.64 18 13 C18 12.01 18 11.02 18 10 C17.030625 10.08378906 16.06125 10.16757812 15.0625 10.25390625 C5.25821516 11.0244895 -4.20716882 10.84645482 -14 10 C-14 9.67 -14 9.34 -14 9 C-10.37 9 -6.74 9 -3 9 C-2.01 6.03 -1.02 3.06 0 0 Z " fill="#F3F3F3" transform="translate(331,326)"/>
<path d="M0 0 C3.96 0 7.92 0 12 0 C11.22904988 11.41006172 9.60581454 22.68225539 8 34 C7.01 34 6.02 34 5 34 C5.39820098 26.87357553 6.26099799 19.89800053 7.5 12.875 C7.63059814 12.12871338 7.76119629 11.38242676 7.89575195 10.61352539 C8.86782595 5.26434811 8.86782595 5.26434811 10 3 C7.69 3 5.38 3 3 3 C3 2.34 3 1.68 3 1 C2.01 0.67 1.02 0.34 0 0 Z " fill="#C3C3C3" transform="translate(359,341)"/>
<path d="M0 0 C3.3 0 6.6 0 10 0 C10 0.99 10 1.98 10 3 C12.31 3 14.62 3 17 3 C17 4.32 17 5.64 17 7 C17.66 7.33 18.32 7.66 19 8 C18.34 9.98 17.68 11.96 17 14 C20.3 14 23.6 14 27 14 C27 14.33 27 14.66 27 15 C28.98 15.66 30.96 16.32 33 17 C32.505 18.485 32.505 18.485 32 20 C31.67 19.01 31.34 18.02 31 17 C28.53991222 17.08679142 26.08356483 17.19360955 23.625 17.3125 C22.92632812 17.33505859 22.22765625 17.35761719 21.5078125 17.38085938 C19.22711059 17.46984296 19.22711059 17.46984296 16 18 C15.34 18.99 14.68 19.98 14 21 C14.495 16.545 14.495 16.545 15 12 C12.69 12 10.38 12 8 12 C8 11.01 8 10.02 8 9 C11.465 8.505 11.465 8.505 15 8 C15.33 6.68 15.66 5.36 16 4 C13.69 4 11.38 4 9 4 C9 3.01 9 2.02 9 1 C6.03 1 3.06 1 0 1 C0 0.67 0 0.34 0 0 Z " fill="#A5A5A5" transform="translate(301,320)"/>
<path d="M0 0 C2.12534659 0.14069196 4.25027529 0.28770921 6.375 0.4375 C8.15003906 0.55931641 8.15003906 0.55931641 9.9609375 0.68359375 C13 1 13 1 15 2 C14.67 4.31 14.34 6.62 14 9 C2.86792453 7.86792453 2.86792453 7.86792453 0 5 C-0.04063832 3.33382885 -0.042721 1.66611905 0 0 Z " fill="#1D1D1D" transform="translate(275,321)"/>
<path d="M0 0 C1.65 0 3.3 0 5 0 C4.01 0.495 4.01 0.495 3 1 C3.87472593 5.95514502 3.87472593 5.95514502 7.125 9.4375 C7.74375 9.623125 8.3625 9.80875 9 10 C6 12 6 12 4 12 C3.67 13.98 3.34 15.96 3 18 C4.98 17.01 6.96 16.02 9 15 C9 15.66 9 16.32 9 17 C6 19 6 19 3 19 C2.67 19.99 2.34 20.98 2 22 C0.68 21.67 -0.64 21.34 -2 21 C-1.01 20.34 -0.02 19.68 1 19 C1.25015873 15.41642759 1.25015873 15.41642759 1 12 C-0.65 11.67 -2.3 11.34 -4 11 C-3 9 -3 9 0 8 C0.33 6.35 0.66 4.7 1 3 C-0.65 3.66 -2.3 4.32 -4 5 C-4 4.01 -4 3.02 -4 2 C-2.68 2 -1.36 2 0 2 C0 1.34 0 0.68 0 0 Z " fill="#548ABB" transform="translate(378,247)"/>
<path d="M0 0 C7.425 0.99 7.425 0.99 15 2 C15 4.31 15 6.62 15 9 C12.87363187 8.71848084 10.74891472 8.42446737 8.625 8.125 C7.44164062 7.96257812 6.25828125 7.80015625 5.0390625 7.6328125 C2 7 2 7 0 5 C0 3.35 0 1.7 0 0 Z " fill="#0F0F0F" transform="translate(189,332)"/>
<path d="M0 0 C2.31317961 0.30742903 4.62553352 0.62107702 6.9375 0.9375 C8.22527344 1.11152344 9.51304687 1.28554688 10.83984375 1.46484375 C14 2 14 2 15 3 C15.04080783 4.99958364 15.04254356 7.00045254 15 9 C12.87363187 8.71848084 10.74891472 8.42446737 8.625 8.125 C7.44164062 7.96257812 6.25828125 7.80015625 5.0390625 7.6328125 C2 7 2 7 0 5 C-0.125 2.375 -0.125 2.375 0 0 Z " fill="#121212" transform="translate(190,321)"/>
<path d="M0 0 C9.41002278 0.96355353 9.41002278 0.96355353 14 2 C14 4.31 14 6.62 14 9 C12.04020573 8.71831703 10.08217622 8.42433283 8.125 8.125 C6.48917969 7.88136719 6.48917969 7.88136719 4.8203125 7.6328125 C2 7 2 7 0 5 C-0.125 2.375 -0.125 2.375 0 0 Z " fill="#0E0E0E" transform="translate(274,332)"/>
<path d="M0 0 C1.15957207 3.47871621 0.77456651 4.34219645 -0.4375 7.6875 C-0.86869141 8.89986328 -0.86869141 8.89986328 -1.30859375 10.13671875 C-1.65083984 11.05904297 -1.65083984 11.05904297 -2 12 C-2.33 10.68 -2.66 9.36 -3 8 C-5.31 8 -7.62 8 -10 8 C-10 8.99 -10 9.98 -10 11 C-10.99 11 -11.98 11 -13 11 C-13 10.34 -13 9.68 -13 9 C-13.99 9.33 -14.98 9.66 -16 10 C-16.66 9.34 -17.32 8.68 -18 8 C-12.06 5.36 -6.12 2.72 0 0 Z " fill="#63A8D4" transform="translate(363,155)"/>
<path d="M0 0 C1.18464844 0.49113281 2.36929687 0.98226563 3.58984375 1.48828125 C10.15980556 3.67826852 16.71092983 3.32418094 23.5625 3.1875 C24.85736328 3.17396484 26.15222656 3.16042969 27.48632812 3.14648438 C30.65799214 3.1113737 33.8287709 3.06219347 37 3 C34.21753585 4.8549761 33.11470118 5.33586208 29.98046875 5.8515625 C28.81741211 6.04492188 28.81741211 6.04492188 27.63085938 6.2421875 C26.42139648 6.43167969 26.42139648 6.43167969 25.1875 6.625 C23.99543945 6.82609375 23.99543945 6.82609375 22.77929688 7.03125 C18.47291324 7.72938994 14.37872963 8.15512408 10 8 C10.66 7.34 11.32 6.68 12 6 C8.7 5.01 5.4 4.02 2 3 C1.67 3.66 1.34 4.32 1 5 C0.67 3.35 0.34 1.7 0 0 Z " fill="#3F76AD" transform="translate(300,264)"/>
<path d="M0 0 C1.12107552 3.36322657 0.94897448 5.63104368 0.02050781 9.0390625 C-1.9683927 12.8607967 -5.78920779 13.98062776 -9.625 15.5 C-10.82769531 16.01820313 -10.82769531 16.01820313 -12.0546875 16.546875 C-14.02519008 17.39137611 -16.01125883 18.19939328 -18 19 C-18.33 18.34 -18.66 17.68 -19 17 C-18.01 17 -17.02 17 -16 17 C-15.34 15.35 -14.68 13.7 -14 12 C-13.01 12.33 -12.02 12.66 -11 13 C-10.67 12.01 -10.34 11.02 -10 10 C-8.88625 9.5875 -7.7725 9.175 -6.625 8.75 C-4.28996733 7.86297527 -3.24161538 7.37370961 -1.87109375 5.25390625 C-1.15632062 3.53776014 -0.56780437 1.77021362 0 0 Z " fill="#4E9EDA" transform="translate(359,167)"/>
<path d="M0 0 C1.32 0 2.64 0 4 0 C3.32418477 6.08233706 2.26361972 12.01314152 1 18 C-0.32 17.67 -1.64 17.34 -3 17 C-2.01 11.39 -1.02 5.78 0 0 Z " fill="#121212" transform="translate(332,356)"/>
<path d="M0 0 C1.32 0 2.64 0 4 0 C3.34 5.61 2.68 11.22 2 17 C0.68 17.33 -0.64 17.66 -2 18 C-1.85805236 15.93722893 -1.71127784 13.87478969 -1.5625 11.8125 C-1.48128906 10.66394531 -1.40007812 9.51539063 -1.31640625 8.33203125 C-1.04596188 5.48401829 -0.62478253 2.78789518 0 0 Z " fill="#121212" transform="translate(315,356)"/>
<path d="M0 0 C0.66 0.66 1.32 1.32 2 2 C1.85404889 6.23258222 -1.14584269 8.18176914 -4 11 C-4.9378934 12.03035018 -5.86746404 13.06833063 -6.7890625 14.11328125 C-7.48902344 14.9012207 -7.48902344 14.9012207 -8.203125 15.70507812 C-9.16417528 16.79154019 -10.11978277 17.88283743 -11.0703125 18.97851562 C-12.3197885 20.3754992 -13.65508581 21.69464211 -15 23 C-15.99 23 -16.98 23 -18 23 C-17.20335937 22.09378906 -16.40671875 21.18757813 -15.5859375 20.25390625 C-9.93299655 13.77279342 -4.45745538 7.38999181 0 0 Z " fill="#2F5F98" transform="translate(423,227)"/>
<path d="M0 0 C0.33 0 0.66 0 1 0 C2.76533068 10.40113752 1.24561209 20.62498131 0 31 C-0.99 30.67 -1.98 30.34 -3 30 C-2.68872014 26.68738419 -2.37574793 23.37493024 -2.0625 20.0625 C-1.97548828 19.13630859 -1.88847656 18.21011719 -1.79882812 17.25585938 C-1.25324813 11.4969594 -0.6543395 5.7475767 0 0 Z " fill="#D9D9D9" transform="translate(383,341)"/>
<path d="M0 0 C0 0.99 0 1.98 0 3 C-0.66 3 -1.32 3 -2 3 C-2.1546875 4.3921875 -2.1546875 4.3921875 -2.3125 5.8125 C-3.04746414 9.22006102 -3.51102506 9.79821448 -6 12 C-6.474375 12.86625 -6.94875 13.7325 -7.4375 14.625 C-9 17 -9 17 -11.1875 17.8125 C-11.785625 17.874375 -12.38375 17.93625 -13 18 C-11.57161648 13.93687797 -9.60352958 10.78098171 -7.0625 7.3125 C-6.37285156 6.35988281 -5.68320312 5.40726563 -4.97265625 4.42578125 C-3 2 -3 2 0 0 Z " fill="#E2ECEE" transform="translate(292,218)"/>
<path d="M0 0 C-3.85523365 3.1664319 -8.18290864 5.40682623 -12.5625 7.75 C-13.33013672 8.17410156 -14.09777344 8.59820312 -14.88867188 9.03515625 C-15.99758789 9.62876953 -15.99758789 9.62876953 -17.12890625 10.234375 C-17.79994385 10.59756836 -18.47098145 10.96076172 -19.16235352 11.33496094 C-21 12 -21 12 -24 11 C-21.8125 8.5 -21.8125 8.5 -19 6 C-17.33333333 6 -15.66666667 6 -14 6 C-11.39585286 3.64587234 -11.39585286 3.64587234 -9 1 C-5.70805202 -1.26321424 -3.8027324 -1.05631456 0 0 Z " fill="#4B8FC7" transform="translate(384,284)"/>
<path d="M0 0 C-0.75 7.75 -0.75 7.75 -3 10 C-3.66 10 -4.32 10 -5 10 C-5.33 8.68 -5.66 7.36 -6 6 C-8.64 6 -11.28 6 -14 6 C-10.292996 2.7563715 -5.02493834 0 0 0 Z " fill="#549CD0" transform="translate(351,200)"/>
<path d="M0 0 C2 3 2 3 1.75 5 C0.43902118 8.49594352 -0.75740453 9.87127587 -4.0625 11.625 C-8.26312407 13.31765654 -12.51172862 13.7048529 -17 14 C-14.10414095 11.70351643 -11.1827969 9.95652443 -7.875 8.3125 C-7.00617188 7.87550781 -6.13734375 7.43851563 -5.2421875 6.98828125 C-3 6 -3 6 -1 6 C-0.67 4.02 -0.34 2.04 0 0 Z " fill="#E9F5F3" transform="translate(347,214)"/>
<path d="M0 0 C-0.92941406 0.72445312 -1.85882813 1.44890625 -2.81640625 2.1953125 C-8.98350929 7.01424651 -15.12508882 11.82448301 -21 17 C-21 16.01 -21 15.02 -21 14 C-20.34 14 -19.68 14 -19 14 C-19.33 12.35 -19.66 10.7 -20 9 C-19.34 9 -18.68 9 -18 9 C-18 9.66 -18 10.32 -18 11 C-17.34 11 -16.68 11 -16 11 C-16 10.01 -16 9.02 -16 8 C-12.87682483 5.76916059 -9.5865054 4.33213058 -6 3 C-6 2.01 -6 1.02 -6 0 C-3.50907189 -1.24546405 -2.58919267 -0.7767578 0 0 Z " fill="#3D6DA7" transform="translate(311,203)"/>
<path d="M0 0 C0.99 0.33 1.98 0.66 3 1 C2.34 2.65 1.68 4.3 1 6 C0.34 6 -0.32 6 -1 6 C-1 6.66 -1 7.32 -1 8 C-1.99 8 -2.98 8 -4 8 C-4.33 7.34 -4.66 6.68 -5 6 C-5.70125 6.78375 -6.4025 7.5675 -7.125 8.375 C-10.09157086 11.08360818 -12.1582516 12.01722715 -16 13 C-11.39037523 7.91351749 -5.92414402 3.4664496 0 0 Z " fill="#2D69AF" transform="translate(306,185)"/>
<path d="M0 0 C0.66 0.33 1.32 0.66 2 1 C0.35 2.98 -1.3 4.96 -3 7 C-5 6 -5 6 -8 4 C-8 4.66 -8 5.32 -8 6 C-7.34 6.33 -6.68 6.66 -6 7 C-8 9 -8 9 -10.1640625 9.1953125 C-11.38222656 9.16050781 -11.38222656 9.16050781 -12.625 9.125 C-13.44226563 9.10695312 -14.25953125 9.08890625 -15.1015625 9.0703125 C-15.72804688 9.04710937 -16.35453125 9.02390625 -17 9 C-14.62905707 6.34828752 -12.16431913 4.8509948 -9 3.25 C-8.13375 2.80140625 -7.2675 2.3528125 -6.375 1.890625 C-4 1 -4 1 -1 2 C-0.67 1.34 -0.34 0.68 0 0 Z " fill="#3D7DBC" transform="translate(328,211)"/>
<path d="M0 0 C0 0.99 0 1.98 0 3 C0.66 3.33 1.32 3.66 2 4 C-5.26 4 -12.52 4 -20 4 C-20 3.67 -20 3.34 -20 3 C-17.79344925 2.49219106 -15.58466395 1.99408635 -13.375 1.5 C-11.53035156 1.08234375 -11.53035156 1.08234375 -9.6484375 0.65625 C-6.32847772 0.05908379 -3.36091549 -0.12409534 0 0 Z " fill="#6090B9" transform="translate(389,190)"/>
<path d="M0 0 C0.66 0.33 1.32 0.66 2 1 C2.33 1.99 2.66 2.98 3 4 C5.00016466 5.20882096 5.00016466 5.20882096 7 6 C6.38125 6.4125 5.7625 6.825 5.125 7.25 C2.93231719 9.05573879 2.07211583 10.4090534 1 13 C0.6596875 12.071875 0.6596875 12.071875 0.3125 11.125 C-1.37929835 8.38589791 -2.99244161 7.94975528 -6 7 C-4 5 -4 5 -1 4 C-0.26676204 1.98491642 -0.26676204 1.98491642 0 0 Z " fill="#4681BA" transform="translate(321,198)"/>
<path d="M0 0 C4.35821846 1.18860503 7.35305396 2.23319217 10 6 C10.74195584 12.04164038 10.74195584 12.04164038 8.5 14.9375 C8.005 15.288125 7.51 15.63875 7 16 C6.875 9.375 6.875 9.375 8 6 C7.2575 6.061875 6.515 6.12375 5.75 6.1875 C2.54616994 5.96905704 1.35968744 5.09749995 -1 3 C-0.67 2.01 -0.34 1.02 0 0 Z " fill="#F0F5F3" transform="translate(396,195)"/>
<path d="M0 0 C0.99 0 1.98 0 3 0 C1.07289294 11.52164009 1.07289294 11.52164009 -1 17 C-1.33 17 -1.66 17 -2 17 C-2.05418326 14.91695462 -2.09287551 12.83350232 -2.125 10.75 C-2.14820313 9.58984375 -2.17140625 8.4296875 -2.1953125 7.234375 C-2.0103949 4.17213954 -1.60823023 2.55797249 0 0 Z " fill="#E9F5F6" transform="translate(353,242)"/>
<path d="M0 0 C5.94 1.485 5.94 1.485 12 3 C7.75197923 5.12401038 4.83238937 5.2376107 0.25 5.125 C-0.44738281 5.11597656 -1.14476562 5.10695313 -1.86328125 5.09765625 C-3.57566958 5.07419888 -5.28788004 5.03833104 -7 5 C-7 4.67 -7 4.34 -7 4 C-6.030625 3.71125 -5.06125 3.4225 -4.0625 3.125 C-0.89335797 2.35785318 -0.89335797 2.35785318 0 0 Z " fill="#316BAE" transform="translate(302,267)"/>
<path d="M0 0 C1.32 0.66 2.64 1.32 4 2 C2.2527456 3.29537826 0.50208483 4.58616273 -1.25 5.875 C-2.22453125 6.59429687 -3.1990625 7.31359375 -4.203125 8.0546875 C-6.43902154 9.60982225 -8.52872493 10.88204223 -11 12 C-10.8125 9.6875 -10.8125 9.6875 -10 7 C-7.10451959 4.79029126 -5.66842255 4 -2 4 C-1.34 2.68 -0.68 1.36 0 0 Z " fill="#E9F2F1" transform="translate(302,184)"/>
<path d="M0 0 C0.33 0 0.66 0 1 0 C2.57990392 8.88162206 1.32346258 17.18420795 0 26 C-0.33 26 -0.66 26 -1 26 C-1.19672365 24.27185839 -1.38196799 22.54240803 -1.5625 20.8125 C-1.66691406 19.84957031 -1.77132813 18.88664062 -1.87890625 17.89453125 C-1.99758751 15.05766623 -1.67765639 12.74576329 -1 10 C-1.66 9.67 -2.32 9.34 -3 9 C-2.34 9 -1.68 9 -1 9 C-0.67 6.03 -0.34 3.06 0 0 Z " fill="#D5D5D5" transform="translate(288,334)"/>
<path d="M0 0 C3.24208567 0.35049575 4.61527704 0.56221181 6.8125 3.0625 C7.204375 3.701875 7.59625 4.34125 8 5 C6.71186658 5.83878455 5.41936744 6.67086783 4.125 7.5 C3.40570313 7.9640625 2.68640625 8.428125 1.9453125 8.90625 C0 10 0 10 -2 10 C-1.75 7.125 -1.75 7.125 -1 4 C1.0625 2.625 1.0625 2.625 3 2 C2.01 1.34 1.02 0.68 0 0 Z " fill="#E0EEF3" transform="translate(383,255)"/>
<path d="M0 0 C0.66 0 1.32 0 2 0 C1.67 0.5775 1.34 1.155 1 1.75 C-0.27075898 4.19883862 -0.27075898 4.19883862 0 8 C-0.99 8.66 -1.98 9.32 -3 10 C-4.06246527 11.96752828 -5.07137808 13.96587579 -6 16 C-6.33 16 -6.66 16 -7 16 C-7.74159972 10.06720225 -5.41121397 6.58963335 -2 2 C-1.34 1.34 -0.68 0.68 0 0 Z " fill="#2B5796" transform="translate(288,238)"/>
<path d="M0 0 C-1.15173355 2.46800047 -2.04783565 4.04783565 -4 6 C-4.99 6 -5.98 6 -7 6 C-6.67 6.99 -6.34 7.98 -6 9 C-8.97 8.505 -8.97 8.505 -12 8 C-12 7.01 -12 6.02 -12 5 C-10.37750059 4.16180842 -8.75191503 3.3295884 -7.125 2.5 C-6.22007812 2.0359375 -5.31515625 1.571875 -4.3828125 1.09375 C-2 0 -2 0 0 0 Z " fill="#4C92D1" transform="translate(370,272)"/>
<path d="M0 0 C2 2 2 2 3.5 5.5625 C4.58995587 9.06202674 4.58995587 9.06202674 7 10 C7 10.66 7 11.32 7 12 C7.99 11.67 8.98 11.34 10 11 C9.67 11.99 9.34 12.98 9 14 C5.67042093 13.72253508 4.21195277 13.18903896 1.6875 10.9375 C-0.58644396 6.9791531 -0.30595085 4.51277506 0 0 Z " fill="#2D5999" transform="translate(281,255)"/>
<path d="M0 0 C1.65 0 3.3 0 5 0 C5 2.64 5 5.28 5 8 C3.35 8 1.7 8 0 8 C0 5.36 0 2.72 0 0 Z " fill="#E2E2E2" transform="translate(298,350)"/>
<path d="M0 0 C4 1 4 1 5.25 3.0625 C5.4975 3.701875 5.745 4.34125 6 5 C5.01 6.485 5.01 6.485 4 8 C0.875 8.1875 0.875 8.1875 -2 8 C-1.34 5.36 -0.68 2.72 0 0 Z " fill="#1F5599" transform="translate(414,194)"/>
<path d="M0 0 C0.66 0.33 1.32 0.66 2 1 C0.06393789 3.00520718 -1.77131401 4.84061279 -4.0625 6.4375 C-6.16480746 7.94931072 -6.16480746 7.94931072 -7.5 10.5 C-9.05828919 13.09714866 -10.4917832 14.35668555 -13 16 C-11.40011639 8.71164135 -5.99392563 4.07586943 0 0 Z " fill="#E0EFF4" transform="translate(310,239)"/>
<path d="M0 0 C-3.41211416 2.27474277 -5.6568529 2.56629644 -9.6875 3.125 C-10.86699219 3.29257812 -12.04648437 3.46015625 -13.26171875 3.6328125 C-14.16535156 3.75398438 -15.06898438 3.87515625 -16 4 C-16 3.34 -16 2.68 -16 2 C-18.64 2 -21.28 2 -24 2 C-24 1.67 -24 1.34 -24 1 C-21.125109 0.8312433 -18.25011104 0.66492885 -15.375 0.5 C-14.56675781 0.45230469 -13.75851562 0.40460938 -12.92578125 0.35546875 C-8.61012369 0.10986222 -4.32496331 -0.05598658 0 0 Z " fill="#6A99C0" transform="translate(337,267)"/>
<path d="M0 0 C0.66 0.33 1.32 0.66 2 1 C1.07248802 2.9630836 0.13263547 4.92034027 -0.8125 6.875 C-1.33457031 7.96554688 -1.85664063 9.05609375 -2.39453125 10.1796875 C-4 13 -4 13 -7 15 C-7 12.69 -7 10.38 -7 8 C-5.35 7.67 -3.7 7.34 -2 7 C-1.855625 6.401875 -1.71125 5.80375 -1.5625 5.1875 C-1.1127561 3.43849596 -0.57107659 1.71322977 0 0 Z " fill="#295498" transform="translate(429,238)"/>
<path d="M0 0 C1.32 0 2.64 0 4 0 C4 2.97 4 5.94 4 9 C2.68 9 1.36 9 0 9 C0 6.03 0 3.06 0 0 Z " fill="#1F1F1F" transform="translate(316,345)"/>
<path d="M0 0 C3.96 0 7.92 0 12 0 C11.67 2.31 11.34 4.62 11 7 C10.67 5.68 10.34 4.36 10 3 C7.69 3 5.38 3 3 3 C3 2.34 3 1.68 3 1 C2.01 0.67 1.02 0.34 0 0 Z " fill="#D9D9D9" transform="translate(359,341)"/>
<path d="M0 0 C0.8971875 0.309375 0.8971875 0.309375 1.8125 0.625 C0.75 3 0.75 3 -1.1875 5.625 C-4.875 6.9375 -4.875 6.9375 -8.1875 7.625 C-7.8575 6.635 -7.5275 5.645 -7.1875 4.625 C-6.5275 4.625 -5.8675 4.625 -5.1875 4.625 C-5.1875 3.635 -5.1875 2.645 -5.1875 1.625 C-2.1875 -0.375 -2.1875 -0.375 0 0 Z " fill="#2B6BAD" transform="translate(401.1875,253.375)"/>
<path d="M0 0 C1.2065625 0.0309375 1.2065625 0.0309375 2.4375 0.0625 C1.29319823 3.93552138 0.20429902 7.06513439 -2.5625 10.0625 C-3.2225 10.0625 -3.8825 10.0625 -4.5625 10.0625 C-4.8925 9.0725 -5.2225 8.0825 -5.5625 7.0625 C-4.2425 6.4025 -2.9225 5.7425 -1.5625 5.0625 C-2.2225 3.7425 -2.8825 2.4225 -3.5625 1.0625 C-2.5625 0.0625 -2.5625 0.0625 0 0 Z " fill="#29549A" transform="translate(417.5625,213.9375)"/>
<path d="M0 0 C1.65 0 3.3 0 5 0 C5 2.31 5 4.62 5 7 C3.35 7 1.7 7 0 7 C0 4.69 0 2.38 0 0 Z " fill="#E2E2E2" transform="translate(300,337)"/>
<path d="M0 0 C-4.95 2.31 -9.9 4.62 -15 7 C-15.33 6.34 -15.66 5.68 -16 5 C-15.01 5 -14.02 5 -13 5 C-12.34 3.35 -11.68 1.7 -11 0 C-9.68 0 -8.36 0 -7 0 C-6.319375 -0.185625 -5.63875 -0.37125 -4.9375 -0.5625 C-3 -1 -3 -1 0 0 Z " fill="#529AD1" transform="translate(356,179)"/>
<path d="M0 0 C0 0.66 0 1.32 0 2 C-1.65532623 3.01866229 -3.32260138 4.01810813 -5 5 C-5.33 5.66 -5.66 6.32 -6 7 C-8.06640625 7.6328125 -8.06640625 7.6328125 -10.5625 8.125 C-11.38878906 8.29257813 -12.21507812 8.46015625 -13.06640625 8.6328125 C-13.70449219 8.75398437 -14.34257812 8.87515625 -15 9 C-12.59888822 6.36115438 -9.99444972 4.63586471 -6.9375 2.8125 C-5.62072266 2.01779297 -5.62072266 2.01779297 -4.27734375 1.20703125 C-2 0 -2 0 0 0 Z " fill="#E7F1F2" transform="translate(328,229)"/>
<path d="M0 0 C2.64 0 5.28 0 8 0 C4.67513619 2.74054368 1.16942114 4.42376049 -2.75 6.1875 C-3.92046875 6.71730469 -5.0909375 7.24710938 -6.296875 7.79296875 C-7.18890625 8.19128906 -8.0809375 8.58960938 -9 9 C-9 8.34 -9 7.68 -9 7 C-6.25207819 4.55740284 -3.43927579 3.2419607 0 2 C0 1.34 0 0.68 0 0 Z " fill="#4E8FC3" transform="translate(334,221)"/>
<path d="M0 0 C0.66 0.33 1.32 0.66 2 1 C1.34 3.31 0.68 5.62 0 8 C-0.66 7.01 -1.32 6.02 -2 5 C-2.66 6.32 -3.32 7.64 -4 9 C-4.99 8.67 -5.98 8.34 -7 8 C-6.34 8 -5.68 8 -5 8 C-5 7.34 -5 6.68 -5 6 C-5.99 5.67 -6.98 5.34 -8 5 C-6.71475739 4.13619741 -5.42157581 3.28419631 -4.125 2.4375 C-3.04605469 1.72400391 -3.04605469 1.72400391 -1.9453125 0.99609375 C-1.30335938 0.66738281 -0.66140625 0.33867187 0 0 Z " fill="#D3E6EF" transform="translate(324,194)"/>
<path d="M0 0 C0.33 1.98 0.66 3.96 1 6 C-1.64 6 -4.28 6 -7 6 C-6.75 4.125 -6.75 4.125 -6 2 C-3.85331506 0.61504198 -2.56128588 0 0 0 Z " fill="#235BA5" transform="translate(295,196)"/>
<path d="M0 0 C0 0.66 0 1.32 0 2 C-2.31 2 -4.62 2 -7 2 C-7 2.99 -7 3.98 -7 5 C-7.99 5 -8.98 5 -10 5 C-10 4.34 -10 3.68 -10 3 C-10.99 3.33 -11.98 3.66 -13 4 C-13.66 3.34 -14.32 2.68 -15 2 C-13.01432292 1.51171875 -11.02864583 1.0234375 -9.04296875 0.53515625 C-3.20403226 -0.99435484 -3.20403226 -0.99435484 0 0 Z " fill="#449CDC" transform="translate(360,161)"/>
<path d="M0 0 C1 3 1 3 0.0625 5.1875 C-0.288125 5.785625 -0.63875 6.38375 -1 7 C-1.99 7 -2.98 7 -4 7 C-4.33 6.34 -4.66 5.68 -5 5 C-6.65 5.33 -8.3 5.66 -10 6 C-6.87567603 3.47650757 -3.61939504 1.72743854 0 0 Z " fill="#E2F2F3" transform="translate(379,249)"/>
<path d="M0 0 C0.33 0 0.66 0 1 0 C2.72107623 10.37757848 2.72107623 10.37757848 0.953125 14.35546875 C-0.4375 16.25 -0.4375 16.25 -3 19 C-3.66 18.67 -4.32 18.34 -5 18 C-4.360625 16.88625 -3.72125 15.7725 -3.0625 14.625 C-0.64256752 9.85354302 -0.2167031 5.28755567 0 0 Z " fill="#D8E7EF" transform="translate(422,202)"/>
<path d="M0 0 C0.66 0.99 1.32 1.98 2 3 C2.66 2.01 3.32 1.02 4 0 C4 0.99 4 1.98 4 3 C4.99 3.33 5.98 3.66 7 4 C5.54462432 4.83848804 4.08559627 5.67063934 2.625 6.5 C1.40683594 7.19609375 1.40683594 7.19609375 0.1640625 7.90625 C-2 9 -2 9 -4 9 C-3.67 7.68 -3.34 6.36 -3 5 C-2.01 5.33 -1.02 5.66 0 6 C0 4.02 0 2.04 0 0 Z " fill="#D0E2EB" transform="translate(320,207)"/>
<path d="M0 0 C1.65 0 3.3 0 5 0 C5 1.65 5 3.3 5 5 C3.68 5 2.36 5 1 5 C0.01 5.495 0.01 5.495 -1 6 C-1.99 5.67 -2.98 5.34 -4 5 C-4 4.34 -4 3.68 -4 3 C-3.01 2.67 -2.02 2.34 -1 2 C-0.67 1.34 -0.34 0.68 0 0 Z " fill="#2E79C3" transform="translate(381,266)"/>
<path d="M0 0 C0.99 0.495 0.99 0.495 2 1 C3.0209375 1.309375 3.0209375 1.309375 4.0625 1.625 C6 3 6 3 6.75 6.625 C6.8325 7.73875 6.915 8.8525 7 10 C5.02 10.99 5.02 10.99 3 12 C3 8.23312136 3.23537317 7.08809695 5 4 C3.35 3.67 1.7 3.34 0 3 C0 2.01 0 1.02 0 0 Z " fill="#ECF6F6" transform="translate(373,256)"/>
<path d="M0 0 C0.66 0.99 1.32 1.98 2 3 C0.02 5.31 -1.96 7.62 -4 10 C-4.66 9.67 -5.32 9.34 -6 9 C-5.52797514 4.75177626 -3.03344482 2.80010291 0 0 Z " fill="#EFF4F1" transform="translate(290,231)"/>
<path d="M0 0 C0.66 0.99 1.32 1.98 2 3 C1.690625 3.495 1.38125 3.99 1.0625 4.5 C-0.41644382 7.97986781 -0.62402851 11.24028509 -1 15 C-2.98 15.33 -4.96 15.66 -7 16 C-6.04673828 15.67322266 -6.04673828 15.67322266 -5.07421875 15.33984375 C-2.75794656 14.15539201 -2.75794656 14.15539201 -2.20703125 11.50390625 C-2.07683594 10.53324219 -1.94664062 9.56257812 -1.8125 8.5625 C-1.38143113 5.53696052 -0.96897373 2.90692119 0 0 Z " fill="#D6EEF5" transform="translate(361,164)"/>
<path d="M0 0 C0.33 0 0.66 0 1 0 C1 4.29 1 8.58 1 13 C0.01 13 -0.98 13 -2 13 C-1.85966889 11.02043559 -1.7125877 9.04134859 -1.5625 7.0625 C-1.48128906 5.96035156 -1.40007812 4.85820312 -1.31640625 3.72265625 C-1 1 -1 1 0 0 Z " fill="#DFDFDF" transform="translate(366,362)"/>
<path d="M0 0 C0.33 0 0.66 0 1 0 C1.78441153 6.56492112 2.10914408 12.46837378 1 19 C0.67 19 0.34 19 0 19 C-0.8931507 12.41816638 -0.95494281 6.57849492 0 0 Z " fill="#B5B5B5" transform="translate(383,341)"/>
<path d="M0 0 C0 0.66 0 1.32 0 2 C0.66 2.33 1.32 2.66 2 3 C-1.82320557 4.42258812 -4.91281305 5.24042276 -9 5 C-9.33 5.99 -9.66 6.98 -10 8 C-10.66 7.01 -11.32 6.02 -12 5 C-10.37750059 4.16180842 -8.75191503 3.3295884 -7.125 2.5 C-6.22007812 2.0359375 -5.31515625 1.571875 -4.3828125 1.09375 C-2 0 -2 0 0 0 Z " fill="#4C8DC5" transform="translate(337,206)"/>
<path d="M0 0 C1.04449911 3.13349732 0.93423645 3.98968256 0 7 C-0.99 7 -1.98 7 -3 7 C-3.33 7.66 -3.66 8.32 -4 9 C-5.64363134 9.72159424 -7.31050386 10.39351421 -9 11 C-8.60167969 10.54109375 -8.20335937 10.0821875 -7.79296875 9.609375 C-5.08857938 6.47728415 -2.42008229 3.36122541 0 0 Z " fill="#E4F0F2" transform="translate(416,221)"/>
<path d="M0 0 C0 3.52809907 -0.64276511 4.46815512 -3 7 C-6 7 -6 7 -10 6 C-6.7 4.02 -3.4 2.04 0 0 Z " fill="#477FB5" transform="translate(388,225)"/>
<path d="M0 0 C0.33 0.66 0.66 1.32 1 2 C-2.61328125 6.6875 -2.61328125 6.6875 -4 8 C-4.99 8 -5.98 8 -7 8 C-7 8.66 -7 9.32 -7 10 C-8.32 9.67 -9.64 9.34 -11 9 C-10.37351562 8.51789063 -9.74703125 8.03578125 -9.1015625 7.5390625 C-7.87566406 6.59160156 -7.87566406 6.59160156 -6.625 5.625 C-5.81289063 4.99851563 -5.00078125 4.37203125 -4.1640625 3.7265625 C-1.95776805 2.03226506 -1.95776805 2.03226506 0 0 Z " fill="#4275A8" transform="translate(400,215)"/>
<path d="M0 0 C1.65 0 3.3 0 5 0 C2.373409 2.91843445 -0.66976339 4.94517315 -4 7 C-4.66 7 -5.32 7 -6 7 C-5.67 5.68 -5.34 4.36 -5 3 C-4.360625 2.87625 -3.72125 2.7525 -3.0625 2.625 C-2.0415625 2.315625 -2.0415625 2.315625 -1 2 C-0.67 1.34 -0.34 0.68 0 0 Z " fill="#E7F1F3" transform="translate(313,177)"/>
<path d="M0 0 C-2.22825644 2.22825644 -3.65761628 2.69239369 -6.625 3.625 C-7.44226563 3.88539063 -8.25953125 4.14578125 -9.1015625 4.4140625 C-9.72804688 4.60742188 -10.35453125 4.80078125 -11 5 C-10.625 3.0625 -10.625 3.0625 -10 1 C-6.78548731 -0.60725635 -3.56387464 -0.05748185 0 0 Z " fill="#EDF6F6" transform="translate(354,159)"/>
<path d="M0 0 C2.97 0.495 2.97 0.495 6 1 C5.67 4.63 5.34 8.26 5 12 C4.67 12 4.34 12 4 12 C3.67 9.03 3.34 6.06 3 3 C2.01 3 1.02 3 0 3 C0 2.01 0 1.02 0 0 Z " fill="#E1E1E1" transform="translate(333,341)"/>
<path d="M0 0 C2.64 0.33 5.28 0.66 8 1 C3.47239812 4.01840125 1.47631692 5.24339186 -4 5 C-3.67 4.34 -3.34 3.68 -3 3 C-2.34 3 -1.68 3 -1 3 C-0.67 2.01 -0.34 1.02 0 0 Z " fill="#D4E5EA" transform="translate(369,190)"/>
<path d="M0 0 C0.66 0.33 1.32 0.66 2 1 C-1.96570677 5.38808974 -5.01191871 8.68554313 -11 10 C-7.50640535 6.40365256 -3.88901869 3.16548033 0 0 Z " fill="#446CA8" transform="translate(301,188)"/>
<path d="M0 0 C0 3.99904969 -1.72586967 5.80200422 -4 9 C-5.32 8.34 -6.64 7.68 -8 7 C-5.36 4.69 -2.72 2.38 0 0 Z " fill="#E8F0F2" transform="translate(413,263)"/>
<path d="M0 0 C0.66 0.66 1.32 1.32 2 2 C1.9375 3.9375 1.9375 3.9375 1 6 C-1.5625 7.75 -1.5625 7.75 -4 9 C-3.35455571 5.51460083 -1.89865603 2.97180943 0 0 Z " fill="#2B5592" transform="translate(423,227)"/>
<path d="M0 0 C0.99 0 1.98 0 3 0 C3 2.64 3 5.28 3 8 C2.01 8 1.02 8 0 8 C0 5.36 0 2.72 0 0 Z " fill="#050505" transform="translate(333,345)"/>
<path d="M0 0 C0.33 0.66 0.66 1.32 1 2 C5.455 1.505 5.455 1.505 10 1 C6.63576723 3.96052484 3.30840713 4.92289822 -1 6 C-0.67 4.02 -0.34 2.04 0 0 Z " fill="#60A4D2" transform="translate(340,300)"/>
<path d="M0 0 C-4.95 2.475 -4.95 2.475 -10 5 C-10.33 4.01 -10.66 3.02 -11 2 C-9.73392393 1.46770674 -8.46189588 0.94955456 -7.1875 0.4375 C-6.47980469 0.14746094 -5.77210938 -0.14257812 -5.04296875 -0.44140625 C-3 -1 -3 -1 0 0 Z " fill="#E7F6F5" transform="translate(368,273)"/>
<path d="M0 0 C0.33 0 0.66 0 1 0 C1 1.98 1 3.96 1 6 C2.98 5.67 4.96 5.34 7 5 C4.3144406 7.6855594 1.62378672 8.06049974 -2 9 C-1.34 6.03 -0.68 3.06 0 0 Z " fill="#60A0C6" transform="translate(353,253)"/>
<path d="M0 0 C2.8290723 2.8290723 3.37611108 3.38144425 4 7 C2.02 7.99 2.02 7.99 0 9 C0 6.03 0 3.06 0 0 Z " fill="#2E5997" transform="translate(426,215)"/>
<path d="M0 0 C1.32 0.33 2.64 0.66 4 1 C4 3.31 4 5.62 4 8 C2.68 7.34 1.36 6.68 0 6 C0 4.02 0 2.04 0 0 Z " fill="#F2F8F6" transform="translate(316,205)"/>
<path d="M0 0 C0 0.66 0 1.32 0 2 C0.99 2.33 1.98 2.66 3 3 C1 5 1 5 -1.625 5.125 C-2.40875 5.08375 -3.1925 5.0425 -4 5 C-4 3.68 -4 2.36 -4 1 C-2 0 -2 0 0 0 Z " fill="#E6F1F2" transform="translate(328,205)"/>
<path d="M0 0 C1.485 0.99 1.485 0.99 3 2 C3.375 5.4375 3.375 5.4375 3 9 C2.01 9.99 1.02 10.98 0 12 C0 8.04 0 4.08 0 0 Z " fill="#DDEBF1" transform="translate(403,199)"/>
<path d="M0 0 C1.65 0 3.3 0 5 0 C5.33 0.66 5.66 1.32 6 2 C2.04 3.98 2.04 3.98 -2 6 C-1 2 -1 2 0 0 Z " fill="#488DC8" transform="translate(333,185)"/>
<path d="M0 0 C-1 3 -1 3 -3.75 4.6875 C-6.85020705 5.93950669 -8.71671912 6.28970125 -12 6 C-8.59780735 3.25207517 -4.51535412 0 0 0 Z " fill="#5193C8" transform="translate(345,164)"/>
<path d="M0 0 C1.32 0 2.64 0 4 0 C4.33 1.32 4.66 2.64 5 4 C4.01 4 3.02 4 2 4 C1.67 4.99 1.34 5.98 1 7 C0.01 6.67 -0.98 6.34 -2 6 C-1.34 4.02 -0.68 2.04 0 0 Z " fill="#3D94D7" transform="translate(355,291)"/>
<path d="M0 0 C0.66 0 1.32 0 2 0 C0.61811547 3.21043882 -0.92421903 5.04936365 -3.625 7.25 C-4.57246094 8.03117187 -4.57246094 8.03117187 -5.5390625 8.828125 C-6.02117187 9.21484375 -6.50328125 9.6015625 -7 10 C-6.34 8.35 -5.68 6.7 -5 5 C-4.34 5 -3.68 5 -3 5 C-2.690625 4.360625 -2.38125 3.72125 -2.0625 3.0625 C-1 1 -1 1 0 0 Z " fill="#2A5595" transform="translate(419,254)"/>
<path d="M0 0 C1.32 0.66 2.64 1.32 4 2 C1.69 4.31 -0.62 6.62 -3 9 C-3.33 8.01 -3.66 7.02 -4 6 C-2.68 5.34 -1.36 4.68 0 4 C0 2.68 0 1.36 0 0 Z " fill="#E8F3F3" transform="translate(399,211)"/>
<path d="M0 0 C2.97 0.495 2.97 0.495 6 1 C1.25 5 1.25 5 -1 5 C-0.67 3.35 -0.34 1.7 0 0 Z " fill="#EAF4F2" transform="translate(321,171)"/>
<path d="M0 0 C0.33 0 0.66 0 1 0 C1 2.97 1 5.94 1 9 C0.01 9.33 -0.98 9.66 -2 10 C-1.85950482 8.52031676 -1.71245174 7.04125484 -1.5625 5.5625 C-1.48128906 4.73878906 -1.40007812 3.91507812 -1.31640625 3.06640625 C-1 1 -1 1 0 0 Z " fill="#F2F2F2" transform="translate(381,370)"/>
<path d="M0 0 C2.97 0.495 2.97 0.495 6 1 C4.35 2.32 2.7 3.64 1 5 C0.01 4.34 -0.98 3.68 -2 3 C-1.34 2.01 -0.68 1.02 0 0 Z " fill="#3974B1" transform="translate(390,238)"/>
<path d="M0 0 C0.66 0.33 1.32 0.66 2 1 C2.625 3.0625 2.625 3.0625 3 5 C1.35 5.33 -0.3 5.66 -2 6 C-2 6.66 -2 7.32 -2 8 C-3.32 7.34 -4.64 6.68 -6 6 C-5.195625 5.7525 -4.39125 5.505 -3.5625 5.25 C-0.828919 4.27761141 -0.828919 4.27761141 -0.1875 1.875 C-0.125625 1.25625 -0.06375 0.6375 0 0 Z " fill="#5C88B8" transform="translate(321,198)"/>
<path d="M0 0 C-3.20336822 2.83374881 -5.78087253 3.5205537 -10 4 C-9 1 -9 1 -7.25 -0.25 C-4.47275102 -1.17574966 -2.78428335 -0.77341204 0 0 Z " fill="#3C82C0" transform="translate(384,284)"/>
<path d="M0 0 C-1 3 -1 3 -2.75 4.1875 C-5.29960574 5.10819096 -7.30923081 5.14948718 -10 5 C-3.63636364 0 -3.63636364 0 0 0 Z " fill="#5BA1D5" transform="translate(358,278)"/>
<path d="M0 0 C0.99 1.32 1.98 2.64 3 4 C0.69 5.32 -1.62 6.64 -4 8 C-3.67 6.68 -3.34 5.36 -3 4 C-2.01 4 -1.02 4 0 4 C0 2.68 0 1.36 0 0 Z " fill="#3C71AA" transform="translate(400,231)"/>
<path d="M0 0 C0.33 0 0.66 0 1 0 C1.25 2.3125 1.25 2.3125 1 5 C-1 6.8125 -1 6.8125 -3 8 C-3.66 7.67 -4.32 7.34 -5 7 C-4.19152271 5.83054208 -3.37810888 4.66449539 -2.5625 3.5 C-2.11003906 2.8503125 -1.65757812 2.200625 -1.19140625 1.53125 C-0.79824219 1.0259375 -0.40507812 0.520625 0 0 Z " fill="#3E69A5" transform="translate(406,207)"/>
<path d="M0 0 C2.09219926 2.78959901 3.57568513 4.93224489 5 8 C3.02 8.99 3.02 8.99 1 10 C0.67 6.7 0.34 3.4 0 0 Z " fill="#E7EFF2" transform="translate(280,260)"/>
<path d="M0 0 C0.33 0 0.66 0 1 0 C1 2.97 1 5.94 1 9 C0.01 9.33 -0.98 9.66 -2 10 C-1.46274105 6.62294375 -0.88935377 3.303314 0 0 Z " fill="#E4F1F3" transform="translate(350,204)"/>
<path d="M0 0 C-1.28813342 0.83878455 -2.58063256 1.67086783 -3.875 2.5 C-4.59429687 2.9640625 -5.31359375 3.428125 -6.0546875 3.90625 C-8 5 -8 5 -10 5 C-10 4.34 -10 3.68 -10 3 C-8.68 2.67 -7.36 2.34 -6 2 C-6 1.34 -6 0.68 -6 0 C-3.50907189 -1.24546405 -2.58919267 -0.7767578 0 0 Z " fill="#467DB6" transform="translate(326,194)"/>
<path d="M0 0 C1.98 0 3.96 0 6 0 C5.67 1.32 5.34 2.64 5 4 C3.35 3.67 1.7 3.34 0 3 C0 2.01 0 1.02 0 0 Z " fill="#ECF2F1" transform="translate(411,189)"/>
<path d="M0 0 C0 0.66 0 1.32 0 2 C-2.31 3.32 -4.62 4.64 -7 6 C-7.66 5.34 -8.32 4.68 -9 4 C-2.25 0 -2.25 0 0 0 Z " fill="#508BBF" transform="translate(333,170)"/>
<path d="M0 0 C0 0.66 0 1.32 0 2 C-0.66 2 -1.32 2 -2 2 C-2 2.66 -2 3.32 -2 4 C-3.875 4.625 -3.875 4.625 -6 5 C-6.66 4.34 -7.32 3.68 -8 3 C-2.25 0 -2.25 0 0 0 Z " fill="#DCEEF3" transform="translate(356,299)"/>
<path d="M0 0 C0.99 0.33 1.98 0.66 3 1 C-0.465 3.97 -0.465 3.97 -4 7 C-4 6.01 -4 5.02 -4 4 C-3.34 4 -2.68 4 -2 4 C-1.34 2.68 -0.68 1.36 0 0 Z " fill="#3A6B9F" transform="translate(304,241)"/>
<path d="M0 0 C0.66 0 1.32 0 2 0 C1.1875 1.9375 1.1875 1.9375 0 4 C-0.99 4.33 -1.98 4.66 -3 5 C-3 5.66 -3 6.32 -3 7 C-3.66 6.67 -4.32 6.34 -5 6 C-3.38405168 3.95880212 -1.7143618 1.95927063 0 0 Z " fill="#39619D" transform="translate(288,238)"/>
<path d="M0 0 C0.33 0.99 0.66 1.98 1 3 C-2.80504787 4.79682816 -3.70600835 5.07349791 -8 4 C-5.36 2.68 -2.72 1.36 0 0 Z " fill="#548EC5" transform="translate(376,232)"/>
<path d="M0 0 C0 0.66 0 1.32 0 2 C-4.15267176 5.11450382 -4.15267176 5.11450382 -7.3125 4.6875 C-7.869375 4.460625 -8.42625 4.23375 -9 4 C-2.25 0 -2.25 0 0 0 Z " fill="#DCEDF4" transform="translate(328,229)"/>
<path d="M0 0 C1.98 0 3.96 0 6 0 C6 0.99 6 1.98 6 3 C6.66 3.33 7.32 3.66 8 4 C6.35 4 4.7 4 3 4 C3 3.01 3 2.02 3 1 C2.01 0.67 1.02 0.34 0 0 Z " fill="#5A8EBC" transform="translate(383,190)"/>
</svg>
